<svg width="116" height="100" viewBox="0 0 116 100" fill="none" xmlns="http://www.w3.org/2000/svg">
<path d="M100.546 7.75012C100.546 7.53143 100.649 7.32716 100.826 7.19739L103.856 4.96246C104.124 4.763 104.349 4.58276 104.528 4.42175C104.708 4.26315 104.847 4.10934 104.947 3.96516C105.045 3.82097 105.117 3.67678 105.155 3.53739C105.193 3.39801 105.215 3.24181 105.215 3.07359V2.89335C105.215 2.60497 105.091 2.36466 104.842 2.17481C104.593 1.98496 104.275 1.89123 103.887 1.89123C103.5 1.89123 103.153 1.99938 102.873 2.21326C102.718 2.33341 102.586 2.48481 102.479 2.66745C102.314 2.94382 101.967 3.05196 101.665 2.93901L101.01 2.69148C100.608 2.53768 100.443 2.05465 100.668 1.68456C100.929 1.2568 101.273 0.908346 101.704 0.634387C102.364 0.213835 103.163 0.00476074 104.095 0.00476074C104.622 0.00476074 105.1 0.072049 105.526 0.206626C105.954 0.341202 106.32 0.531051 106.629 0.776172C106.937 1.02129 107.171 1.31448 107.337 1.66053C107.499 2.00418 107.583 2.38628 107.583 2.80684C107.583 3.22739 107.502 3.60949 107.337 3.95314C107.171 4.29679 106.961 4.6068 106.703 4.88316C106.444 5.15712 106.162 5.40945 105.854 5.64015C105.545 5.87085 105.244 6.08473 104.945 6.2842C104.38 6.65909 104.643 7.54104 105.32 7.54104H107.093C107.468 7.54104 107.774 7.84865 107.774 8.22594V8.63688C107.774 9.01658 107.468 9.32178 107.093 9.32178H101.228C100.85 9.32178 100.546 9.01418 100.546 8.63688V7.75252V7.75012Z" fill="white"/>
<path d="M111.817 9.49725C111.14 9.49725 110.556 9.38671 110.066 9.16802C109.573 8.94934 109.166 8.63452 108.843 8.22359C108.52 7.81505 108.279 7.3176 108.121 6.73363C107.963 6.14966 107.882 5.4888 107.882 4.74863C107.882 4.00846 107.961 3.34759 108.121 2.76362C108.281 2.17966 108.52 1.68221 108.843 1.27367C109.166 0.865135 109.575 0.550322 110.066 0.329232C110.558 0.110545 111.142 0 111.817 0C112.491 0 113.065 0.110545 113.56 0.329232C114.058 0.547919 114.467 0.862732 114.79 1.27367C115.113 1.68461 115.354 2.17966 115.512 2.76362C115.67 3.34759 115.751 4.00846 115.751 4.74863C115.751 5.4888 115.672 6.14966 115.512 6.73363C115.352 7.3176 115.113 7.81505 114.79 8.22359C114.467 8.63212 114.055 8.94693 113.56 9.16802C113.065 9.38911 112.481 9.49725 111.817 9.49725ZM111.817 7.61078C112.125 7.61078 112.376 7.56272 112.57 7.469C112.764 7.37527 112.917 7.2407 113.032 7.06527C113.146 6.88984 113.225 6.68557 113.271 6.45006C113.316 6.21695 113.338 5.95741 113.338 5.67865V3.82101C113.338 3.54225 113.316 3.28511 113.271 3.0496C113.225 2.81649 113.146 2.61223 113.032 2.44401C112.917 2.27338 112.764 2.1388 112.57 2.04028C112.376 1.94175 112.125 1.89128 111.817 1.89128C111.508 1.89128 111.259 1.94175 111.063 2.04028C110.869 2.1388 110.716 2.27578 110.601 2.44401C110.487 2.61463 110.408 2.81649 110.362 3.0496C110.317 3.28511 110.295 3.54225 110.295 3.82101V5.67865C110.295 5.95741 110.317 6.21455 110.362 6.45006C110.408 6.68557 110.487 6.88984 110.601 7.06527C110.716 7.2407 110.869 7.37527 111.063 7.469C111.257 7.56512 111.508 7.61078 111.817 7.61078Z" fill="white"/>
<path d="M101.187 17.7498C101.187 17.5311 101.29 17.3268 101.467 17.197L104.497 14.9621C104.765 14.7626 104.99 14.5824 105.17 14.4214C105.349 14.2628 105.488 14.109 105.588 13.9648C105.686 13.8206 105.758 13.6764 105.796 13.537C105.834 13.3976 105.856 13.2414 105.856 13.0732V12.893C105.856 12.6046 105.732 12.3643 105.483 12.1744C105.234 11.9846 104.916 11.8909 104.528 11.8909C104.141 11.8909 103.794 11.999 103.514 12.2129C103.359 12.333 103.227 12.4844 103.12 12.6671C102.955 12.9434 102.608 13.0516 102.306 12.9386L101.651 12.6911C101.249 12.5373 101.084 12.0543 101.309 11.6842C101.57 11.2564 101.914 10.908 102.345 10.634C103.005 10.2135 103.804 10.0044 104.737 10.0044C105.263 10.0044 105.741 10.0717 106.167 10.2063C106.595 10.3408 106.961 10.5307 107.27 10.7758C107.578 11.0209 107.813 11.3141 107.978 11.6602C108.14 12.0038 108.224 12.3859 108.224 12.8065C108.224 13.227 108.143 13.6091 107.978 13.9528C107.813 14.2964 107.602 14.6064 107.344 14.8828C107.085 15.1568 106.803 15.4091 106.495 15.6398C106.186 15.8705 105.885 16.0844 105.586 16.2838C105.021 16.6587 105.284 17.5407 105.961 17.5407H107.734C108.109 17.5407 108.415 17.8483 108.415 18.2256V18.6365C108.415 19.0162 108.109 19.3214 107.734 19.3214H101.869C101.491 19.3214 101.187 19.0138 101.187 18.6365V17.7522V17.7498Z" fill="white"/>
<path d="M111.934 13.7485C112.422 13.7485 112.802 13.674 113.075 13.5226C113.347 13.3736 113.486 13.1693 113.486 12.9074V12.8329C113.486 12.5132 113.364 12.2609 113.12 12.0759C112.876 11.8908 112.546 11.7995 112.128 11.7995C111.709 11.7995 111.338 11.8932 110.979 12.0831C110.8 12.1792 110.633 12.2922 110.48 12.4267C110.214 12.6598 109.829 12.6767 109.571 12.4363L109.164 12.0542C108.875 11.7827 108.867 11.3093 109.166 11.0473C109.484 10.7662 109.824 10.5451 110.188 10.3841C110.755 10.1293 111.424 10.002 112.202 10.002C112.747 10.002 113.242 10.062 113.685 10.1822C114.127 10.3023 114.507 10.4682 114.826 10.6844C115.144 10.8983 115.39 11.1603 115.562 11.4703C115.737 11.7803 115.823 12.1239 115.823 12.5036C115.823 13.0323 115.644 13.4865 115.285 13.8662C114.928 14.2459 114.46 14.4742 113.883 14.5559V14.6304C114.56 14.7506 115.082 14.9957 115.447 15.3634C115.816 15.7335 116 16.2021 116 16.7716C116 17.1706 115.904 17.5382 115.718 17.8723C115.529 18.2063 115.266 18.4947 114.928 18.7326C114.591 18.9729 114.18 19.1604 113.699 19.2949C113.216 19.4295 112.687 19.4968 112.111 19.4968C110.712 19.4968 109.602 19.0666 108.781 18.2063C108.509 17.9203 108.564 17.4517 108.877 17.2114L109.429 16.7812C109.712 16.5626 110.102 16.625 110.338 16.8918C110.81 17.4301 111.4 17.6992 112.111 17.6992C112.596 17.6992 112.979 17.5935 113.252 17.3844C113.524 17.1754 113.661 16.8894 113.661 16.5313V16.4712C113.661 16.1708 113.51 15.9425 113.206 15.7815C112.902 15.6205 112.467 15.5412 111.9 15.5412H111.673C111.295 15.5412 110.991 15.2336 110.991 14.8539V14.4286C110.991 14.0489 111.298 13.7437 111.673 13.7437H111.929L111.934 13.7485Z" fill="white"/>
<path d="M81.7959 20.792L81.7839 26.3385C81.7839 27.057 82.3604 27.6386 83.0756 27.6386H88.8353C89.5457 27.6386 90.1221 27.0618 90.1269 26.3481L90.1556 20.816C90.1604 20.0975 89.5815 19.5135 88.8664 19.5111L83.0923 19.4967C82.3795 19.4967 81.7983 20.0735 81.7983 20.792" fill="white"/>
<path d="M52.7079 78.4605H51.4785C51.1579 78.4605 50.9068 78.41 50.737 78.3115C50.5695 78.2129 50.4882 78.0976 50.4882 77.9582C50.4882 77.8525 50.5289 77.7684 50.615 77.7035C50.6987 77.6362 50.8087 77.6026 50.9379 77.6026C51.2201 77.6026 51.4498 77.7251 51.6196 77.9654L51.6363 77.9895L52.5811 77.182L52.5692 77.1628C52.3993 76.8936 52.1745 76.6821 51.9042 76.5331C51.6339 76.3842 51.3373 76.3073 51.024 76.3073C50.8015 76.3073 50.5958 76.3433 50.4117 76.4154C50.2299 76.4875 50.0672 76.5884 49.9333 76.7134C49.7993 76.8408 49.6917 76.9898 49.6176 77.1604C49.5434 77.331 49.5051 77.516 49.5051 77.7107C49.5051 77.8765 49.5267 78.0255 49.5649 78.1529C49.6032 78.2754 49.6702 78.4196 49.7635 78.5806V78.5878H49.199V79.7558H52.7079V78.4605Z" fill="white"/>
<path d="M71.1087 75.1321H71.2786C71.4316 75.1321 71.5584 75.084 71.6565 74.9879C71.7546 74.8942 71.8048 74.7404 71.8048 74.5361C71.8048 74.3319 71.7546 74.1781 71.6565 74.0819C71.5584 73.9858 71.4316 73.9377 71.2786 73.9377H71.1087C70.9557 73.9377 70.8289 73.9858 70.7308 74.0819C70.6327 74.1781 70.5825 74.3295 70.5825 74.5361C70.5825 74.7428 70.6327 74.8942 70.7308 74.9879C70.8289 75.084 70.9557 75.1321 71.1087 75.1321Z" fill="white"/>
<path d="M78.3802 77.7901L77.5335 78.028C77.3996 78.0664 77.2489 78.0977 77.0886 78.1217C76.926 78.1434 76.7705 78.1554 76.627 78.1554C76.194 78.1554 75.8544 78.0785 75.6152 77.9247C75.3808 77.7757 75.2636 77.557 75.2636 77.2782C75.2636 77.0499 75.3473 76.8721 75.5147 76.7495C75.6846 76.627 75.9261 76.5645 76.2371 76.5645C76.4571 76.5645 76.6485 76.6101 76.8088 76.7015C76.969 76.7928 77.1101 76.937 77.2321 77.1316L77.2489 77.1581L78.1793 76.329L78.1961 76.3146L78.1841 76.2953C77.9904 75.9709 77.7464 75.709 77.457 75.5215C77.1652 75.3317 76.7848 75.2355 76.3232 75.2355C76.0434 75.2355 75.7826 75.2908 75.5458 75.3966C75.309 75.5023 75.1009 75.6513 74.9287 75.8363C74.7541 76.0238 74.6154 76.2425 74.5173 76.4876C74.4169 76.7327 74.3666 76.9995 74.3666 77.2806C74.3666 77.4993 74.3977 77.7036 74.4575 77.8934C74.5173 78.0809 74.6034 78.2587 74.7135 78.4221V78.4317H73.8069C73.6825 78.4317 73.5534 78.4245 73.4218 78.4101C73.4577 78.2563 73.4744 78.0761 73.4744 77.8718C73.4744 77.2157 73.3046 76.6943 72.9674 76.3242C72.6301 75.9541 72.1182 75.7666 71.4485 75.7666C71.1591 75.7666 70.884 75.8027 70.6329 75.8748C70.3793 75.9469 70.1377 76.0598 69.9105 76.2136C69.6833 76.3674 69.4632 76.5717 69.2575 76.8144C69.0518 77.0571 68.8485 77.3551 68.65 77.7036L68.2912 78.326C68.1788 78.2371 68.1214 78.0809 68.1214 77.8622V77.2998H67.1383V77.8622C67.1383 78.2467 66.9254 78.4317 66.4877 78.4317H55.0999C54.8583 78.4317 54.6884 78.3933 54.5904 78.314C54.4947 78.2371 54.4469 78.0737 54.4469 77.8261V73.4067H53.3777V77.9968C53.3777 78.6144 53.5212 79.0686 53.8011 79.3449C54.0785 79.6165 54.5067 79.7559 55.0712 79.7607H55.0879H65.9878C66.3538 79.7583 66.6384 79.6621 66.8321 79.4771C67.0235 79.2945 67.1622 79.0013 67.2435 78.612H67.2531C67.3344 79.0037 67.4947 79.2945 67.7291 79.4795C67.9683 79.6669 68.3199 79.7607 68.7744 79.7607H71.1974C71.8575 79.7607 72.3742 79.6477 72.7377 79.4266C72.8932 79.5516 73.0607 79.6405 73.2377 79.6886C73.4075 79.7342 73.5917 79.7583 73.7806 79.7607H73.8069H73.8165C74.2949 79.7607 74.7135 79.7559 75.0603 79.7438C75.4071 79.7318 75.7204 79.7126 75.9931 79.6838C76.261 79.6549 76.5146 79.6165 76.7418 79.5684C76.9714 79.518 77.2106 79.4579 77.4474 79.3858L78.7175 78.9941L78.3898 77.8213L78.3826 77.7949L78.3802 77.7901ZM72.5727 77.7877C72.5727 77.9199 72.5512 78.0256 72.5081 78.1073C72.4651 78.1866 72.3909 78.2491 72.2881 78.2948C72.1828 78.3404 72.0393 78.3765 71.8647 78.3957C71.6901 78.4149 71.4653 78.4245 71.195 78.4245H69.0853L69.0734 78.4005L69.4297 77.8598C69.5374 77.6964 69.6498 77.5642 69.7646 77.4657C69.8794 77.3647 70.011 77.2878 70.1545 77.2326C70.3004 77.1773 70.4678 77.1388 70.6568 77.1196C70.8505 77.1004 71.0754 77.0908 71.3241 77.0908H71.5777C71.9365 77.0908 72.1972 77.1484 72.3503 77.2638C72.5009 77.3767 72.5775 77.5546 72.5775 77.7877" fill="white"/>
<path d="M80.5233 74.4424H79.4541V79.7558H80.5233V74.4424Z" fill="white"/>
<path d="M79.8033 72.7578C79.8033 72.7025 79.8296 72.6568 79.8822 72.616C79.9372 72.5727 80.009 72.5535 80.0999 72.5535C80.2673 72.5535 80.418 72.6208 80.5472 72.7506L80.5687 72.7722L80.9944 72.1762L81.0064 72.1594L80.992 72.1426C80.8772 72.0224 80.7409 71.9239 80.5854 71.8566C80.4299 71.7869 80.2673 71.7509 80.0999 71.7509C79.8248 71.7509 79.5952 71.8326 79.4182 71.9912C79.2412 72.1522 79.1503 72.3565 79.1503 72.6016C79.1503 72.7794 79.2053 72.9332 79.3177 73.0606V73.0702H78.9565V73.8128H81.016V73.0101H80.363C79.9922 73.0101 79.8057 72.926 79.8057 72.7554" fill="white"/>
<path d="M84.1519 79.4145C84.4126 79.5707 84.7595 79.686 85.1828 79.7533C85.6038 79.8206 86.1276 79.8543 86.74 79.8543C87.4552 79.8543 88.0507 79.8254 88.51 79.7702C88.9716 79.7125 89.3424 79.6115 89.6127 79.4698C89.8853 79.3256 90.0767 79.1261 90.1843 78.8786C90.2896 78.6335 90.3422 78.3138 90.3422 77.9317C90.3422 77.7924 90.3326 77.6241 90.3159 77.4343C90.2991 77.2468 90.2752 77.0738 90.2489 76.9224L90.1173 76.1053L89.1414 76.2664L89.2897 77.0834C89.328 77.2949 89.3543 77.4703 89.3711 77.6049C89.3854 77.7347 89.3926 77.8428 89.3926 77.9293C89.3926 78.0159 89.3591 78.0927 89.2945 78.1528C89.2276 78.2153 89.1175 78.2682 88.9668 78.309C88.8138 78.3499 88.6081 78.3811 88.3569 78.398C88.1034 78.4148 87.7852 78.4244 87.4169 78.4244H86.2305C85.8669 78.4244 85.5584 78.4076 85.3096 78.3787C85.0656 78.3475 84.8647 78.2994 84.7164 78.2321C84.5705 78.1673 84.4629 78.0783 84.3983 77.975C84.3337 77.8693 84.3002 77.7347 84.3002 77.5761C84.3002 77.4391 84.3265 77.2781 84.3792 77.1027C84.4318 76.9248 84.5083 76.7398 84.6016 76.5499L84.616 76.5211L83.7716 76.2736L83.7501 76.2664L83.7405 76.288C83.6329 76.5547 83.5492 76.8287 83.4894 77.1003C83.4296 77.3742 83.4009 77.6265 83.4009 77.8548C83.4009 78.2273 83.4607 78.5421 83.5779 78.7945C83.6951 79.0468 83.8888 79.2559 84.1519 79.4145Z" fill="white"/>
<path d="M86.7567 80.3927C86.6036 80.3927 86.4768 80.4408 86.3788 80.5369C86.2807 80.633 86.2305 80.7844 86.2305 80.9911C86.2305 81.1978 86.2807 81.3492 86.3788 81.4429C86.4768 81.539 86.6036 81.5871 86.7567 81.5871H86.9265C87.0796 81.5871 87.2064 81.539 87.3044 81.4429C87.4025 81.3468 87.4527 81.1954 87.4527 80.9911C87.4527 80.7868 87.4025 80.633 87.3044 80.5369C87.2064 80.4408 87.0796 80.3927 86.9265 80.3927H86.7567Z" fill="white"/>
<path d="M93.0999 79.7534H93.1166H103.043C103.313 79.7534 103.576 79.7414 103.825 79.7149C104.074 79.6909 104.335 79.6356 104.6 79.5539C104.863 79.4722 105.148 79.3545 105.447 79.2031C105.741 79.0541 106.081 78.8474 106.454 78.5927C106.516 78.9796 106.664 79.268 106.894 79.4554C107.126 79.6453 107.456 79.7438 107.872 79.7534H107.899H107.911C108.276 79.751 108.561 79.6549 108.755 79.4698C108.946 79.2848 109.085 78.994 109.164 78.6047H109.173C109.255 78.9964 109.415 79.2872 109.649 79.4722C109.884 79.6549 110.226 79.7486 110.668 79.7534H110.695H111.195C111.888 79.7534 112.393 79.6044 112.699 79.3112C113.005 79.018 113.161 78.5542 113.161 77.9294C113.161 77.79 113.151 77.6218 113.134 77.4319C113.118 77.2493 113.094 77.0763 113.067 76.9201L112.936 76.103L111.96 76.264L112.108 77.0811C112.147 77.2902 112.175 77.4656 112.19 77.6026C112.204 77.7348 112.211 77.8453 112.211 77.927C112.211 78.0207 112.197 78.0976 112.168 78.1577C112.139 78.2178 112.087 78.2682 112.01 78.3067C111.931 78.3476 111.826 78.3764 111.697 78.3932C111.563 78.41 111.396 78.4196 111.195 78.4196H110.611C110.231 78.4196 110.044 78.2322 110.044 77.8501V76.6053H109.061V77.8501C109.061 78.2346 108.848 78.4196 108.41 78.4196H107.903C107.695 78.4196 107.547 78.3908 107.466 78.3307C107.391 78.2779 107.348 78.1817 107.339 78.0472H107.932V76.7182H107.736C107.487 76.7182 107.229 76.7014 106.968 76.6677C106.712 76.6341 106.468 76.586 106.243 76.5236L104.607 76.0982C104.497 76.0694 104.404 76.0453 104.323 76.0261L104.268 76.0117C104.177 75.9901 104.098 75.9708 104.033 75.9612C103.961 75.9492 103.909 75.9396 103.863 75.9348C103.813 75.9276 103.765 75.9252 103.72 75.9252C103.359 75.9252 103.086 76.0237 102.909 76.2136C102.732 76.4058 102.644 76.7086 102.644 77.1171V77.7996H103.67V77.1676L104.918 77.4752L106.253 77.7612V77.766L105.954 77.9126C105.715 78.0303 105.485 78.1241 105.272 78.1938C105.062 78.261 104.839 78.3115 104.614 78.3452C104.392 78.3788 104.153 78.4004 103.902 78.4076C103.641 78.4172 103.356 78.4196 103.053 78.4196H93.1357C92.8942 78.4196 92.7243 78.3812 92.6263 78.3019C92.5306 78.225 92.4828 78.0616 92.4828 77.8141V73.3947H91.4136V77.9847C91.4136 78.6023 91.5547 79.0565 91.8369 79.3328C92.1144 79.6044 92.5426 79.7438 93.1094 79.7486" fill="white"/>
<path d="M104.696 75.3026H104.866C105.019 75.3026 105.146 75.2546 105.244 75.1585C105.342 75.0623 105.392 74.9109 105.392 74.7043C105.392 74.4976 105.342 74.3462 105.244 74.2525C105.146 74.1563 105.019 74.1083 104.866 74.1083H104.696C104.543 74.1083 104.416 74.1563 104.318 74.2525C104.22 74.3486 104.17 74.5 104.17 74.7043C104.17 74.9085 104.22 75.0623 104.318 75.1585C104.416 75.2546 104.543 75.3026 104.696 75.3026Z" fill="white"/>
<path d="M108.796 75.9828H108.965C109.118 75.9828 109.245 75.9347 109.343 75.8386C109.441 75.7425 109.492 75.5911 109.492 75.3844C109.492 75.1777 109.441 75.0263 109.343 74.9302C109.245 74.8341 109.118 74.786 108.965 74.786H108.796C108.642 74.786 108.516 74.8341 108.418 74.9302C108.32 75.0263 108.269 75.1777 108.269 75.3844C108.269 75.5911 108.32 75.7425 108.418 75.8386C108.516 75.9323 108.642 75.9828 108.796 75.9828Z" fill="white"/>
<path d="M110.135 75.9828H110.305C110.458 75.9828 110.585 75.9347 110.683 75.8386C110.781 75.7425 110.831 75.5911 110.831 75.3844C110.831 75.1777 110.781 75.0263 110.683 74.9302C110.585 74.8341 110.458 74.786 110.305 74.786H110.135C109.982 74.786 109.855 74.8341 109.757 74.9302C109.659 75.0263 109.609 75.1777 109.609 75.3844C109.609 75.5911 109.659 75.7425 109.757 75.8386C109.855 75.9323 109.982 75.9828 110.135 75.9828Z" fill="white"/>
<path d="M112.235 75.4805H112.405C112.558 75.4805 112.685 75.4324 112.783 75.3363C112.881 75.2402 112.931 75.0888 112.931 74.8845C112.931 74.6803 112.881 74.5264 112.783 74.4303C112.685 74.3342 112.558 74.2861 112.405 74.2861H112.235C112.082 74.2861 111.955 74.3342 111.857 74.4303C111.759 74.5264 111.709 74.6779 111.709 74.8845C111.709 75.0912 111.759 75.2426 111.857 75.3363C111.955 75.4324 112.082 75.4805 112.235 75.4805Z" fill="white"/>
<path d="M114.941 73.4042H113.871V79.7557H114.941V73.4042Z" fill="white"/>
<path d="M54.131 83.1539C53.8583 82.964 53.5402 82.8679 53.179 82.8679C52.8537 82.8679 52.5523 82.9472 52.2796 83.1058C52.0093 83.262 51.7725 83.4663 51.5764 83.7114C51.3803 83.9565 51.2272 84.2329 51.1196 84.5309C51.0119 84.8313 50.9569 85.1293 50.9569 85.4201C50.9569 85.8622 51.0956 86.2131 51.3731 86.4606C51.6482 86.7057 52.05 86.874 52.5714 86.9605L53.8415 87.1768C53.7913 87.4603 53.6024 87.6838 53.2795 87.8424C52.9422 88.0083 52.4806 88.09 51.9065 88.09H51.2296C50.701 88.09 50.2824 87.9938 49.9906 87.8016C49.7012 87.6117 49.5529 87.3402 49.5529 86.9941C49.5529 86.8163 49.5864 86.6 49.6485 86.3525C49.7131 86.105 49.8016 85.8574 49.914 85.6171L49.926 85.5907L49.0841 85.3432L49.0625 85.336L49.053 85.3576C48.9286 85.658 48.8305 85.9728 48.7588 86.2948C48.687 86.6168 48.6511 86.9076 48.6511 87.1647C48.6511 87.5348 48.7181 87.8713 48.8496 88.1597C48.9812 88.448 49.1749 88.698 49.4237 88.9022C49.6749 89.1041 49.9834 89.2603 50.3446 89.366C50.7034 89.4718 51.1148 89.5246 51.5669 89.5246C52.0644 89.5246 52.514 89.4694 52.9039 89.3588C53.2938 89.2483 53.6311 89.0849 53.9037 88.8734C54.1764 88.6619 54.3893 88.3976 54.5352 88.09C54.6787 87.7824 54.7529 87.4267 54.7529 87.0326C54.7529 86.6769 54.6835 86.4005 54.5448 86.2131C54.406 86.0233 54.1692 85.8983 53.8415 85.8406L52.7819 85.6628C52.4638 85.6075 52.2246 85.5378 52.0739 85.4561C51.9256 85.3792 51.8539 85.2663 51.8539 85.1173C51.8539 85.0019 51.885 84.889 51.9424 84.7808C52.0022 84.6703 52.0835 84.5717 52.1816 84.4852C52.2796 84.4011 52.3944 84.329 52.5212 84.2762C52.648 84.2233 52.7795 84.1969 52.9183 84.1969C53.1431 84.1969 53.3321 84.2545 53.478 84.3699C53.6263 84.4876 53.7435 84.6198 53.8272 84.7616L53.8439 84.788L54.7744 83.9589L54.7887 83.9445L54.7792 83.9277C54.6141 83.6009 54.3941 83.3413 54.1238 83.1515" fill="white"/>
<path d="M57.4773 85.4944L57.3458 84.6774L56.3962 84.8264L56.3699 84.8312L56.5517 85.9895C56.5804 86.1529 56.6019 86.3091 56.6186 86.4533C56.6354 86.5951 56.6449 86.7345 56.6449 86.8642C56.6497 87.3425 56.5349 87.6885 56.3029 87.8904C56.0685 88.0946 55.693 88.2004 55.1883 88.2004H54.8247V89.5293H55.1978C55.5901 89.5293 55.9393 89.4644 56.2407 89.3395C56.5421 89.2121 56.8004 89.0295 57.0037 88.7916C57.207 88.5561 57.3649 88.2677 57.4654 87.936C57.5682 87.6044 57.6184 87.2295 57.6184 86.821C57.6184 86.6744 57.6065 86.4821 57.5802 86.2514C57.5539 86.0231 57.518 85.7684 57.4749 85.4968" fill="white"/>
<path d="M73.2256 83.7979C73.2256 84.0022 73.2758 84.156 73.3739 84.2521C73.472 84.3482 73.6011 84.3963 73.7518 84.3963H73.9216C74.0747 84.3963 74.2015 84.3482 74.2995 84.2521C74.3976 84.156 74.4479 84.0046 74.4479 83.7979C74.4479 83.5912 74.3976 83.4398 74.2995 83.3461C74.2015 83.25 74.0747 83.2019 73.9216 83.2019H73.7518C73.5987 83.2019 73.472 83.25 73.3739 83.3461C73.2758 83.4398 73.2256 83.5936 73.2256 83.7979Z" fill="white"/>
<path d="M72.0345 83.3438C71.9365 83.4375 71.8862 83.5913 71.8862 83.7956C71.8862 83.9998 71.9365 84.1536 72.0345 84.2498C72.1326 84.3459 72.2594 84.394 72.4125 84.394H72.5823C72.7354 84.394 72.8621 84.3459 72.9602 84.2498C73.0583 84.1536 73.1085 84.0022 73.1085 83.7956C73.1085 83.5889 73.0583 83.4375 72.9602 83.3438C72.8621 83.2476 72.7354 83.1996 72.5823 83.1996H72.4125C72.2594 83.1996 72.1326 83.2476 72.0345 83.3438Z" fill="white"/>
<path d="M73.252 81.957H73.0821C72.929 81.957 72.8023 82.0051 72.7042 82.1012C72.6061 82.1973 72.5559 82.3487 72.5559 82.553C72.5559 82.7573 72.6061 82.9111 72.7042 83.0072C72.8023 83.1033 72.929 83.1514 73.0821 83.1514H73.252C73.405 83.1514 73.5342 83.1033 73.6299 83.0072C73.7279 82.9111 73.7782 82.7597 73.7782 82.553C73.7782 82.3463 73.7279 82.1949 73.6299 82.1012C73.5318 82.0075 73.405 81.957 73.252 81.957Z" fill="white"/>
<path d="M77.4211 85.6699C77.4211 85.8381 77.3876 85.9631 77.3206 86.04C77.256 86.1169 77.1173 86.1553 76.9116 86.1553H76.1988C75.8185 86.1553 75.6319 85.9679 75.6319 85.5858V84.6822H74.6465V85.5858C74.6465 85.8165 74.6034 85.9847 74.5221 86.088C74.4408 86.189 74.3283 86.2394 74.1896 86.2394H74.1059C73.9337 86.2394 73.8189 86.1914 73.7543 86.0904C73.6897 85.9871 73.6562 85.8165 73.6562 85.5858V85.0234H72.6731V85.5858C72.6731 85.8429 72.6229 86.0256 72.5201 86.1241C72.4172 86.2226 72.2474 86.2731 72.013 86.2731C71.8695 86.2731 71.7283 86.2538 71.5896 86.213C71.4557 86.1745 71.3265 86.1289 71.2021 86.0736L71.4868 85.468L71.4963 85.444L70.6352 85.0234L70.6113 85.0114L70.2693 85.7252C70.1927 85.8838 70.0899 85.9943 69.9607 86.0568C69.8292 86.1193 69.6306 86.1529 69.3723 86.1529H61.7039C61.6728 85.4296 61.5053 84.8576 61.2087 84.4539C60.905 84.0405 60.4888 83.8291 59.9674 83.8291C59.7162 83.8291 59.4794 83.8843 59.2641 83.9901C59.0513 84.0958 58.8623 84.2448 58.7044 84.4299C58.549 84.6173 58.4246 84.8384 58.3361 85.0931C58.2476 85.3479 58.2021 85.6266 58.2021 85.9222C58.2021 86.4101 58.3337 86.7946 58.5944 87.0685C58.8551 87.3425 59.2211 87.4819 59.6851 87.4819H60.6227C60.4888 87.6957 60.2687 87.8688 59.9674 87.9937C59.6468 88.1283 59.2163 88.1956 58.6853 88.1956H58.1184V89.5245H58.7714C59.5488 89.5245 60.1778 89.3443 60.6467 88.9862C61.1107 88.633 61.4264 88.1259 61.5891 87.4795H69.1212C69.4608 87.4795 69.7478 87.4506 69.9679 87.3977C70.1879 87.3449 70.3889 87.2367 70.5635 87.0757L70.7166 87.1695C70.9749 87.3233 71.1902 87.429 71.3528 87.4891C71.5178 87.5491 71.6829 87.5804 71.8479 87.5804C72.1086 87.5804 72.3239 87.4819 72.4818 87.2848C72.6349 87.0949 72.7377 86.797 72.7856 86.3956H72.7903C72.8549 86.797 72.9673 87.0949 73.1324 87.2848C73.2998 87.4795 73.5414 87.5804 73.8476 87.5804C74.1346 87.5804 74.3714 87.4819 74.546 87.2872C74.7158 87.0974 74.8187 86.797 74.8545 86.398H74.8593C74.9239 86.7657 75.0698 87.0397 75.2923 87.2127C75.5147 87.3857 75.84 87.4722 76.261 87.4771H76.2873H76.914C77.4833 87.4722 77.8947 87.3184 78.1315 87.0253C78.3683 86.7321 78.4902 86.2755 78.4902 85.6651V81.1279H77.4211V85.6651V85.6699ZM60.8045 86.1553H59.7712C59.5607 86.1553 59.3957 86.1241 59.2761 86.0616C59.1589 86.0015 59.1039 85.9006 59.1039 85.7564C59.1039 85.5834 59.1756 85.4416 59.3191 85.331C59.4627 85.2181 59.6444 85.1604 59.8573 85.1604C60.1324 85.1604 60.3596 85.2517 60.539 85.4344C60.716 85.617 60.8069 85.8597 60.8069 86.1553" fill="white"/>
<path d="M80.5233 81.1329H79.4541V87.4845H80.5233V81.1329Z" fill="white"/>
<path d="M108.212 88.1212H108.042C107.889 88.1212 107.762 88.1693 107.664 88.2654C107.566 88.3591 107.516 88.5129 107.516 88.7172C107.516 88.9215 107.566 89.0753 107.664 89.1714C107.762 89.2675 107.889 89.3156 108.042 89.3156H108.212C108.365 89.3156 108.492 89.2675 108.59 89.1714C108.688 89.0753 108.738 88.9239 108.738 88.7172C108.738 88.5105 108.688 88.3591 108.59 88.2654C108.492 88.1693 108.365 88.1212 108.212 88.1212Z" fill="white"/>
<path d="M114.744 84.4732C114.472 84.0478 114.06 83.8315 113.522 83.8315C113.314 83.8315 113.132 83.8676 112.974 83.9372C112.819 84.0045 112.673 84.1007 112.546 84.2232C112.419 84.3434 112.312 84.4876 112.221 84.6462C112.13 84.8048 112.046 84.9778 111.974 85.1605L111.738 85.7468C111.678 85.9006 111.601 86.0088 111.51 86.0664C111.419 86.1265 111.271 86.1554 111.068 86.1554H110.814C110.606 86.1554 110.458 86.1265 110.377 86.0664C110.3 86.0136 110.257 85.9174 110.25 85.7805H110.843V84.4515H110.647C110.396 84.4515 110.137 84.4347 109.879 84.4011C109.621 84.3674 109.377 84.3194 109.154 84.2569L107.518 83.8315L107.179 83.7474C107.081 83.7234 107.004 83.7065 106.944 83.6969C106.882 83.6849 106.825 83.6777 106.774 83.6705C106.724 83.6657 106.676 83.6609 106.631 83.6609C106.267 83.6609 105.997 83.7594 105.82 83.9493C105.643 84.1415 105.555 84.4443 105.555 84.8528V85.5353H106.581V84.9033L107.829 85.2109L109.164 85.4945V85.4993L108.865 85.6459C108.623 85.7636 108.394 85.8574 108.183 85.9247C107.97 85.9919 107.75 86.0448 107.525 86.0785C107.298 86.1121 107.059 86.1337 106.813 86.1409C106.569 86.1506 106.282 86.153 105.964 86.153H97.8287C97.446 86.153 97.2618 85.9655 97.2618 85.5834V81.1304H96.1926V85.5834C96.1926 85.9655 95.9798 86.153 95.542 86.153H93.1788C92.7961 86.153 92.612 85.9655 92.612 85.5834V84.6798H91.6265V85.5834C91.6265 85.8141 91.5834 85.9847 91.5021 86.0857C91.4184 86.189 91.3108 86.2395 91.1696 86.2395H91.0859C90.9137 86.2395 90.7989 86.1914 90.7343 86.0905C90.6697 85.9871 90.6363 85.8189 90.6363 85.5858V85.0235H89.6508V85.5858C89.6508 85.7973 89.6053 85.9463 89.5121 86.0304C89.4188 86.1145 89.2466 86.1554 89.0002 86.1554H88.352L88.297 85.8285L88.1295 85.0211L87.1632 85.2085L87.3378 86.0256C87.3761 86.201 87.4096 86.3837 87.4407 86.5615C87.467 86.7345 87.4813 86.8883 87.4813 87.0157C87.4813 87.393 87.3833 87.6693 87.1943 87.8424C87.003 88.0154 86.6944 88.1043 86.2806 88.1043H85.6037C85.1564 88.1043 84.8024 88.0058 84.5513 87.8111C84.3049 87.6189 84.1805 87.3473 84.1805 87.0061C84.1805 86.8451 84.214 86.66 84.2762 86.4558C84.3408 86.2515 84.4293 86.0304 84.5417 85.7997L84.5536 85.7709L83.6878 85.5185L83.6782 85.5402C83.5538 85.8285 83.4558 86.1169 83.384 86.3957C83.3122 86.672 83.2764 86.9364 83.2764 87.1767C83.2764 87.9193 83.5036 88.5032 83.9509 88.9142C84.3958 89.3251 85.0655 89.5342 85.9386 89.5342C86.7159 89.5342 87.3139 89.366 87.7133 89.0343C88.1104 88.7051 88.3448 88.1836 88.4118 87.4819H88.694C88.9882 87.4819 89.2298 87.393 89.414 87.2151C89.5958 87.0421 89.7106 86.7682 89.7584 86.4005H89.7632C89.8278 86.8018 89.9426 87.0998 90.1053 87.2896C90.2727 87.4843 90.5143 87.5828 90.8204 87.5828C91.1098 87.5828 91.3443 87.4843 91.5165 87.2896C91.6863 87.0998 91.7891 86.8018 91.8274 86.4005H91.8322C91.8968 86.7682 92.0427 87.0445 92.2651 87.2175C92.4876 87.3906 92.8129 87.4771 93.2339 87.4819H93.2602H95.0852C95.4416 87.4795 95.7167 87.3834 95.9056 87.1983C96.0922 87.0133 96.2237 86.7225 96.2979 86.3332H96.3075C96.3888 86.7249 96.5538 87.0157 96.7954 87.2007C97.037 87.3834 97.391 87.4771 97.8454 87.4819H97.8718H105.964C106.231 87.4819 106.495 87.4699 106.746 87.4434C106.994 87.417 107.255 87.3617 107.523 87.28C107.789 87.1983 108.073 87.0806 108.37 86.9292C108.666 86.7802 109.004 86.5735 109.377 86.3188C109.439 86.7057 109.585 86.9965 109.817 87.1815C110.049 87.3713 110.379 87.4699 110.795 87.4795H110.822H110.833C111.14 87.4795 111.396 87.441 111.589 87.3714C111.783 87.3017 111.946 87.1791 112.077 87.0061L114.323 87.6982L114.342 87.703L115.158 86.487L115.163 86.4798V86.2251C115.163 85.4801 115.026 84.8889 114.756 84.4659M112.558 85.7805L112.568 85.754C112.635 85.5498 112.733 85.4008 112.859 85.307C112.986 85.2133 113.139 85.1677 113.314 85.1677C113.587 85.1677 113.807 85.2614 113.964 85.4488C114.122 85.6363 114.204 85.8982 114.204 86.2323V86.2827L112.56 85.7805H112.558Z" fill="white"/>
<path d="M96.2739 49.9496H101.811C102.584 49.9496 103.21 49.3224 103.213 48.5486L103.239 43.2376C103.244 42.459 102.617 41.8246 101.84 41.8222L96.2883 41.8077C95.5133 41.8077 94.8842 42.435 94.8818 43.2136L94.8699 48.539C94.8699 49.3176 95.4966 49.952 96.2715 49.952" fill="white"/>
<path d="M83.1855 49.9496H88.7228C89.4954 49.9496 90.1221 49.3224 90.1245 48.5486L90.1508 43.2376C90.1556 42.459 89.5289 41.8246 88.7515 41.8222L83.1999 41.8077C82.4249 41.8077 81.7958 42.435 81.7935 43.2136L81.7815 48.539C81.7815 49.3176 82.4082 49.952 83.1832 49.952" fill="white"/>
<path d="M83.1855 39.8516H88.7228C89.4954 39.8516 90.1221 39.2244 90.1245 38.4506L90.1508 33.1396C90.1556 32.361 89.5289 31.7265 88.7515 31.7241L83.1999 31.7097C82.4249 31.7097 81.7958 32.3369 81.7935 33.1156L81.7815 38.4409C81.7815 39.2196 82.4082 39.854 83.1832 39.854" fill="white"/>
<path d="M68.4777 31.7097C67.7027 31.7097 67.0737 32.3369 67.0713 33.1156L67.0593 38.4409C67.0593 39.2196 67.686 39.854 68.461 39.854H73.9982C74.7708 39.854 75.3975 39.2268 75.3999 38.453L75.4262 33.142C75.431 32.3634 74.8043 31.7265 74.0269 31.7265L68.4753 31.7121L68.4777 31.7097Z" fill="white"/>
<path d="M113.489 40.5269H108.121C107.294 40.5269 106.624 41.1997 106.624 42.0312V66.2862C106.624 67.1778 107.344 67.9036 108.234 67.9036H113.376C114.266 67.9036 114.986 67.1802 114.986 66.2862V42.0312C114.986 41.1997 114.316 40.5269 113.489 40.5269Z" fill="white"/>
<path d="M109.501 32.2142H114.563C114.845 32.2142 115.074 31.9835 115.074 31.6999V30.3854C115.074 30.0994 114.845 29.8711 114.563 29.8711H107.174C106.892 29.8711 106.662 30.1018 106.662 30.3854V35.0595C106.662 35.3431 106.892 35.5738 107.174 35.5738H112.178C112.462 35.5738 112.69 35.8045 112.69 36.0905V36.2154C112.69 36.5014 112.46 36.7297 112.178 36.7297H107.198C106.916 36.7297 106.686 36.9604 106.686 37.244V38.5585C106.686 38.8445 106.916 39.0728 107.198 39.0728H114.512C114.795 39.0728 115.024 38.8421 115.024 38.5585V33.7402C115.024 33.4566 114.795 33.2259 114.512 33.2259H109.535C109.267 33.2259 109.021 33.0312 108.997 32.7645C108.97 32.4641 109.205 32.2118 109.499 32.2118" fill="white"/>
<path d="M101.847 51.92L96.2908 51.9056C95.5159 51.9056 94.8868 52.5329 94.8844 53.3115L94.8725 58.0986C94.8725 58.8748 94.2434 59.5044 93.4708 59.5044H91.2559C90.6125 59.5044 90.0934 58.9805 90.0958 58.3341L90.1078 53.3331C90.1078 52.5545 89.4835 51.9225 88.7085 51.92L83.1521 51.9056C82.3772 51.9056 81.7481 52.5329 81.7457 53.3115L81.7337 57.7982C81.7337 58.7402 80.9707 59.502 80.0331 59.502H77.2035C76.2635 59.502 75.5004 58.7354 75.5028 57.7885L75.5267 44.5736C75.5267 43.795 74.9001 43.163 74.1251 43.163H58.7834C57.8889 43.163 57.0493 43.5907 56.5231 44.3165L52.83 49.3967C52.1746 50.2955 52.8156 51.562 53.9255 51.562H65.7487C66.5236 51.562 67.1527 52.194 67.1503 52.9726L67.1407 58.0937C67.1407 58.87 66.5117 59.4996 65.7391 59.4996H44.7406C44.2957 59.4996 43.8747 59.7135 43.6116 60.0763L39.5478 65.6685C38.8732 66.5961 39.5334 67.8986 40.6767 67.8986H101.328C102.366 67.8986 103.211 67.0551 103.213 66.0097L103.246 53.3283C103.246 52.5497 102.622 51.9176 101.847 51.9152" fill="white"/>
<path d="M74.1656 14.109C73.991 13.948 73.637 13.7341 73.2256 14.0994L32.6207 49.9496C31.4989 50.9397 29.8676 51.1199 28.5592 50.399L1.05954 35.2303C0.92559 35.1558 0.805995 35.1269 0.698359 35.1269C0.454385 35.1269 0.279777 35.2783 0.184101 35.3913C0.0453708 35.5571 -0.141198 35.8911 0.167358 36.2877L29.9441 74.5098C30.1331 74.7525 30.3795 74.7765 30.511 74.7813C30.6426 74.7813 30.8889 74.7381 31.0683 74.4906L74.2613 15.051C74.5866 14.604 74.3426 14.27 74.168 14.109" fill="white"/>
<path d="M82.5493 9.87216V13.722C82.5493 14.4382 83.1282 15.0197 83.8409 15.0197H87.6728C88.3855 15.0197 88.9644 14.4382 88.9644 13.722V9.87216C88.9644 9.15602 88.3855 8.57446 87.6728 8.57446H83.8409C83.1282 8.57446 82.5493 9.15602 82.5493 9.87216Z" fill="white"/>
<path d="M93.3701 7.24543H96.6471C97.2713 7.24543 97.7784 6.73596 97.7784 6.10873V2.81642C97.7784 2.18919 97.2713 1.68213 96.6471 1.68213H93.3701C92.7459 1.68213 92.2388 2.1916 92.2388 2.81642V6.10873C92.2388 6.73596 92.7459 7.24543 93.3701 7.24543Z" fill="white"/>
<path d="M93.5233 18.7349H96.8504C97.4675 18.7349 97.9674 18.2327 97.9674 17.6126V14.2699C97.9674 13.6498 97.4675 13.1476 96.8504 13.1476H93.5233C92.9062 13.1476 92.4062 13.6498 92.4062 14.2699V17.6126C92.4062 18.2327 92.9062 18.7349 93.5233 18.7349Z" fill="white"/>
<path d="M52.6337 95.0904C52.4806 94.7876 52.2295 94.4872 51.8898 94.1965L51.7033 94.0378H50.4451L50.2681 94.2085C49.9213 94.5377 49.6606 94.8886 49.4907 95.2466C49.3209 95.6071 49.2324 95.9628 49.2324 96.3064C49.2324 96.8615 49.3927 97.2989 49.7108 97.6017C50.0289 97.9069 50.4762 98.0607 51.0479 98.0607C51.6195 98.0607 52.0668 97.8877 52.3849 97.5464C52.7031 97.2052 52.8633 96.7246 52.8633 96.119C52.8633 95.7417 52.7844 95.398 52.6313 95.0952M50.89 95.1145H50.9378L51.2273 95.3379C51.378 95.4557 51.5023 95.5614 51.598 95.6504C51.6913 95.7393 51.7678 95.8186 51.8252 95.8859C51.8803 95.9508 51.9161 96.0108 51.9353 96.0637C51.9544 96.119 51.964 96.1694 51.964 96.2175C51.964 96.3737 51.8946 96.4939 51.7535 96.5852C51.61 96.6789 51.4019 96.7246 51.1364 96.7246H50.9666C50.701 96.7246 50.4953 96.6717 50.3518 96.5684C50.2083 96.465 50.139 96.3353 50.139 96.1742C50.139 96.1094 50.1485 96.0469 50.1629 95.9844C50.1796 95.9243 50.2083 95.8642 50.249 95.8018C50.2896 95.7369 50.3423 95.672 50.4116 95.5975C50.481 95.5206 50.5647 95.4365 50.6556 95.3428L50.8924 95.1121L50.89 95.1145Z" fill="white"/>
<path d="M50.3208 93.4104H50.4907C50.6438 93.4104 50.7705 93.3623 50.871 93.2662C50.9691 93.1701 51.0193 93.0163 51.0193 92.812C51.0193 92.6077 50.9691 92.4539 50.871 92.3578C50.7729 92.2617 50.6438 92.2136 50.4907 92.2136H50.3208C50.1678 92.2136 50.041 92.2617 49.9405 92.3578C49.8425 92.4539 49.7922 92.6077 49.7922 92.812C49.7922 93.0163 49.8425 93.1701 49.9405 93.2662C50.0386 93.3623 50.1678 93.4104 50.3208 93.4104Z" fill="white"/>
<path d="M51.6602 93.4104H51.83C51.9831 93.4104 52.1099 93.3623 52.2103 93.2662C52.3084 93.1701 52.3586 93.0163 52.3586 92.812C52.3586 92.6077 52.3084 92.4539 52.2103 92.3578C52.1123 92.2617 51.9831 92.2136 51.83 92.2136H51.6602C51.5071 92.2136 51.3803 92.2617 51.2799 92.3578C51.1818 92.4539 51.1316 92.6077 51.1316 92.812C51.1316 93.0163 51.1818 93.1701 51.2799 93.2662C51.378 93.3623 51.5071 93.4104 51.6602 93.4104Z" fill="white"/>
<path d="M58.9891 93.6244H59.1589C59.312 93.6244 59.4388 93.5763 59.5369 93.4802C59.6349 93.3841 59.6852 93.2303 59.6852 93.026C59.6852 92.8217 59.6349 92.6679 59.5369 92.5718C59.4388 92.4757 59.312 92.4276 59.1589 92.4276H58.9891C58.836 92.4276 58.7093 92.4757 58.6112 92.5718C58.5131 92.6679 58.4629 92.8193 58.4629 93.026C58.4629 93.2327 58.5131 93.3841 58.6112 93.4802C58.7093 93.5763 58.836 93.6244 58.9891 93.6244Z" fill="white"/>
<path d="M59.2784 93.8142C59.1804 93.9104 59.1301 94.0618 59.1301 94.2684C59.1301 94.4751 59.1804 94.6265 59.2784 94.7226C59.3765 94.8187 59.5033 94.8668 59.6587 94.8668H59.8286C59.9816 94.8668 60.1108 94.8187 60.2089 94.7226C60.3069 94.6265 60.3572 94.4751 60.3572 94.2684C60.3572 94.0618 60.3069 93.9104 60.2089 93.8142C60.1108 93.7181 59.9816 93.67 59.8286 93.67H59.6587C59.5057 93.67 59.3765 93.7181 59.2784 93.8142Z" fill="white"/>
<path d="M58.3194 94.8668H58.4892C58.6423 94.8668 58.7715 94.8187 58.8695 94.7226C58.9676 94.6265 59.0178 94.4751 59.0178 94.2684C59.0178 94.0618 58.9676 93.9104 58.8695 93.8142C58.7715 93.7181 58.6423 93.67 58.4892 93.67H58.3194C58.1663 93.67 58.0395 93.7181 57.9391 93.8142C57.841 93.9104 57.7908 94.0618 57.7908 94.2684C57.7908 94.4751 57.841 94.6265 57.9391 94.7226C58.0371 94.8187 58.1639 94.8668 58.3194 94.8668Z" fill="white"/>
<path d="M61.3284 95.2777L61.2566 94.8163L60.3071 94.9725L60.2807 94.9773L60.3621 95.4387C60.3908 95.6213 60.4147 95.7679 60.429 95.8857C60.4458 96.0082 60.4554 96.1068 60.4554 96.1837C60.4554 96.3687 60.4195 96.5057 60.3501 96.5874C60.2831 96.6691 60.1946 96.71 60.0822 96.71H59.9985C59.8646 96.71 59.7617 96.6595 59.6852 96.5586C59.6086 96.4552 59.568 96.287 59.568 96.0563V95.494H58.5825V96.0563C58.5825 96.3134 58.5323 96.4961 58.4294 96.5946C58.329 96.6931 58.1567 96.746 57.9223 96.746C57.7047 96.746 57.5372 96.6931 57.4224 96.5898C57.31 96.4889 57.2526 96.3086 57.2526 96.0563V95.1503L54.0594 95.4964L54.2077 96.4624C54.2364 96.6259 54.2579 96.7797 54.2747 96.9238C54.2914 97.0656 54.301 97.205 54.301 97.3348C54.301 97.813 54.1862 98.1567 53.959 98.3609C53.7317 98.5652 53.3825 98.6685 52.9233 98.6685H52.4712V99.9999H52.9304C53.306 99.9999 53.6408 99.935 53.9279 99.81C54.2149 99.6851 54.4636 99.5 54.6622 99.2621C54.8607 99.0242 55.0138 98.7382 55.1166 98.4066C55.2195 98.075 55.2697 97.7001 55.2697 97.2915C55.2697 97.2074 55.2649 97.1113 55.2578 97.0007C55.2506 96.8998 55.241 96.7893 55.2314 96.6691L56.2695 96.5634C56.2958 97.0632 56.4178 97.4381 56.6355 97.6784C56.8579 97.926 57.1761 98.0533 57.5827 98.0581C57.9176 98.0581 58.1759 97.9596 58.3577 97.7649C58.5323 97.5751 58.6447 97.2771 58.6925 96.8758H58.6973C58.7739 97.2699 58.9126 97.5679 59.1159 97.7625C59.324 97.9596 59.6349 98.0605 60.0416 98.0605C60.5056 98.0605 60.8548 97.9067 61.0772 97.6015C61.2973 97.2987 61.4073 96.8229 61.4073 96.1861C61.4073 96.0395 61.4025 95.8905 61.3906 95.7463C61.3786 95.6021 61.3595 95.4483 61.3308 95.2801" fill="white"/>
<path d="M77.4331 96.143C77.4331 96.3112 77.3996 96.4361 77.335 96.513C77.2704 96.5899 77.1317 96.6284 76.9284 96.6284H75.5602C75.6822 96.5299 75.7898 96.4361 75.8759 96.352C75.9692 96.2607 76.0482 96.1646 76.1104 96.0612C76.1701 95.9603 76.2156 95.8474 76.2443 95.7296C76.273 95.6119 76.2874 95.4725 76.2874 95.3187C76.2874 94.814 76.1295 94.4367 75.8185 94.1988C75.51 93.9633 75.0196 93.8455 74.3619 93.8455C74.0653 93.8455 73.7519 93.8816 73.4362 93.9513C73.1229 94.0234 72.8215 94.1243 72.5392 94.2565L72.5225 94.2637V95.6095L73.3405 96.6164L73.3357 96.6284H63.8399C63.5983 96.6284 63.4285 96.5899 63.3328 96.5106C63.2395 96.4337 63.1917 96.2703 63.1917 96.0252V91.6058H62.1201V96.1958C62.1201 96.8134 62.2636 97.2676 62.5435 97.544C62.8233 97.8203 63.2587 97.9597 63.8327 97.9597H72.6875C72.9937 97.9597 73.2951 97.9237 73.5845 97.8516C73.8691 97.7819 74.1442 97.6641 74.4001 97.5031C74.6585 97.6641 74.9503 97.7819 75.2708 97.8516C75.5961 97.9237 75.9142 97.9573 76.2204 97.9573H76.9332C77.5048 97.9525 77.9138 97.7987 78.153 97.5055C78.3898 97.2124 78.5094 96.7534 78.5094 96.143V91.6034H77.4379V96.143H77.4331ZM74.3595 95.1721C74.7422 95.1721 75.0149 95.2057 75.1656 95.2706C75.3115 95.3355 75.3808 95.4412 75.3808 95.595C75.3808 95.6527 75.3736 95.7032 75.3617 95.744C75.3497 95.7825 75.3258 95.8233 75.2947 95.8642C75.2636 95.905 75.2206 95.9459 75.1632 95.9916C75.1081 96.0372 75.0412 96.0925 74.9598 96.1622L74.4647 96.5707L73.386 95.297V95.2778C73.5127 95.2514 73.661 95.2274 73.8285 95.2057C74.0079 95.1841 74.1849 95.1721 74.3595 95.1721Z" fill="white"/>
<path d="M80.5376 91.6034H79.4661V97.9573H80.5376V91.6034Z" fill="white"/>
<path d="M85.5845 93.4104H85.7543C85.9074 93.4104 86.0342 93.3623 86.1347 93.2662C86.2327 93.1701 86.283 93.0163 86.283 92.812C86.283 92.6077 86.2327 92.4539 86.1347 92.3578C86.0366 92.2617 85.9098 92.2136 85.7543 92.2136H85.5845C85.4314 92.2136 85.3047 92.2617 85.2042 92.3578C85.1061 92.4539 85.0559 92.6053 85.0559 92.812C85.0559 93.0187 85.1061 93.1701 85.2042 93.2662C85.3023 93.3623 85.4291 93.4104 85.5845 93.4104Z" fill="white"/>
<path d="M84.2452 93.4104H84.415C84.5681 93.4104 84.6948 93.3623 84.7953 93.2662C84.8934 93.1701 84.9436 93.0163 84.9436 92.812C84.9436 92.6077 84.8934 92.4539 84.7953 92.3578C84.6972 92.2617 84.5705 92.2136 84.415 92.2136H84.2452C84.0921 92.2136 83.9653 92.2617 83.8648 92.3578C83.7668 92.4539 83.7166 92.6053 83.7166 92.812C83.7166 93.0187 83.7668 93.1701 83.8648 93.2662C83.9629 93.3623 84.0921 93.4104 84.2452 93.4104Z" fill="white"/>
<path d="M86.5581 95.0904C86.405 94.7876 86.1538 94.4872 85.8142 94.1965L85.6276 94.0378H84.3695L84.1925 94.2085C83.8457 94.5377 83.5849 94.8862 83.4151 95.2466C83.2453 95.6071 83.1592 95.9628 83.1592 96.3064C83.1592 96.8615 83.3194 97.2989 83.6376 97.6017C83.9557 97.9069 84.4054 98.0607 84.9746 98.0607C85.5439 98.0607 85.996 97.8877 86.3117 97.5464C86.6298 97.2052 86.7901 96.7246 86.7901 96.119C86.7901 95.7417 86.7112 95.398 86.5581 95.0952M84.8168 95.1145H84.8646L85.154 95.3379C85.3047 95.4557 85.4291 95.5614 85.5248 95.6504C85.6181 95.7393 85.6946 95.8186 85.7496 95.8859C85.8046 95.9508 85.8405 96.0108 85.8596 96.0637C85.8788 96.119 85.8883 96.1694 85.8883 96.2175C85.8883 96.3737 85.819 96.4939 85.6755 96.5852C85.532 96.6789 85.3239 96.7246 85.0584 96.7246H84.8885C84.623 96.7246 84.4149 96.6717 84.2738 96.5684C84.1303 96.465 84.0609 96.3353 84.0609 96.1742C84.0609 96.1094 84.0681 96.0469 84.0848 95.9844C84.1016 95.9243 84.1303 95.8642 84.171 95.8018C84.214 95.7369 84.2666 95.6672 84.3336 95.5975C84.403 95.523 84.4843 95.4365 84.5776 95.3428L84.8144 95.1121L84.8168 95.1145Z" fill="white"/>
<path d="M90.0933 94.1843H90.2631C90.4162 94.1843 90.543 94.1363 90.6434 94.0401C90.7415 93.944 90.7917 93.7902 90.7917 93.5859C90.7917 93.3817 90.7415 93.2279 90.6434 93.1317C90.5454 93.0356 90.4186 92.9875 90.2631 92.9875H90.0933C89.9402 92.9875 89.8135 93.0356 89.713 93.1317C89.6149 93.2279 89.5647 93.3793 89.5647 93.5859C89.5647 93.7926 89.6149 93.944 89.713 94.0401C89.8111 94.1339 89.9378 94.1843 90.0933 94.1843Z" fill="white"/>
<path d="M91.4305 94.1843H91.6003C91.7534 94.1843 91.8801 94.1363 91.9806 94.0401C92.0787 93.944 92.1289 93.7902 92.1289 93.5859C92.1289 93.3817 92.0787 93.2279 91.9806 93.1317C91.8825 93.0356 91.7534 92.9875 91.6003 92.9875H91.4305C91.2774 92.9875 91.1506 93.0356 91.0502 93.1317C90.9521 93.2279 90.9019 93.3793 90.9019 93.5859C90.9019 93.7926 90.9521 93.944 91.0502 94.0401C91.1482 94.1339 91.275 94.1843 91.4305 94.1843Z" fill="white"/>
<path d="M107.791 92.7207H107.961C108.114 92.7207 108.241 92.6726 108.339 92.5765C108.437 92.4804 108.487 92.329 108.487 92.1223C108.487 91.9156 108.437 91.7642 108.339 91.6681C108.241 91.572 108.114 91.5239 107.961 91.5239H107.791C107.638 91.5239 107.511 91.572 107.413 91.6681C107.315 91.7642 107.265 91.9156 107.265 92.1223C107.265 92.329 107.315 92.4804 107.413 92.5765C107.511 92.6726 107.638 92.7207 107.791 92.7207Z" fill="white"/>
<path d="M113.611 91.6034V96.143C113.611 96.3112 113.577 96.4361 113.513 96.513C113.448 96.5899 113.309 96.626 113.106 96.626H112.436C112.056 96.626 111.869 96.4409 111.869 96.0564V91.6034H110.798V96.0564C110.798 96.4385 110.585 96.626 110.147 96.626H109.013L109.009 96.6164C109.219 96.4025 109.365 96.1718 109.446 95.9339C109.528 95.6912 109.571 95.4508 109.571 95.2225C109.571 94.9654 109.53 94.7203 109.451 94.4944C109.372 94.2685 109.255 94.0666 109.107 93.8984C108.958 93.7278 108.777 93.5932 108.568 93.4947C108.36 93.3962 108.126 93.3481 107.875 93.3481C107.624 93.3481 107.392 93.3962 107.181 93.4947C106.973 93.5932 106.791 93.7278 106.643 93.8984C106.495 94.0666 106.38 94.2685 106.299 94.4944C106.22 94.7203 106.179 94.9654 106.179 95.2225C106.179 95.4532 106.222 95.6936 106.303 95.9339C106.385 96.1742 106.531 96.4025 106.741 96.6164L106.736 96.626H91.995C91.7534 96.626 91.5835 96.5875 91.4855 96.5082C91.3922 96.4313 91.3444 96.2679 91.3444 96.0228V94.8116H90.3589V95.547L89.0099 95.7681L88.9214 95.1745L88.9166 95.148L87.967 95.297L87.9407 95.3018L88.1225 96.4626C88.1512 96.626 88.1727 96.7822 88.1894 96.924C88.2062 97.0682 88.2157 97.2075 88.2157 97.3349C88.2205 97.8131 88.1057 98.1568 87.8737 98.3611C87.6393 98.5653 87.2662 98.6687 86.7615 98.6687H86.3955V100H86.771C87.1633 100 87.5125 99.9351 87.8163 99.8102C88.1177 99.6852 88.3736 99.5002 88.5817 99.2622C88.785 99.0243 88.9405 98.736 89.0433 98.4067C89.1462 98.0775 89.1964 97.7002 89.1964 97.2917V97.1715C89.1964 97.1355 89.1964 97.097 89.1916 97.0586L90.4187 96.8543C90.4952 97.2364 90.6531 97.52 90.8899 97.693C91.1315 97.8684 91.4711 97.9573 91.9041 97.9573H106.172C106.478 97.9573 106.779 97.9165 107.069 97.8372C107.353 97.7579 107.626 97.6185 107.882 97.419C108.14 97.6185 108.413 97.7579 108.698 97.8372C108.987 97.9165 109.288 97.9573 109.595 97.9573H109.678C110.039 97.9573 110.319 97.8612 110.511 97.6738C110.697 97.4887 110.829 97.1979 110.903 96.8086H110.91C110.991 97.2003 111.156 97.4911 111.398 97.6762C111.644 97.8636 112.008 97.9573 112.474 97.9573H113.101C113.673 97.9525 114.082 97.7987 114.321 97.5055C114.558 97.2124 114.68 96.7534 114.68 96.143V91.6034H113.608H113.611ZM107.827 94.6794H107.927C108.152 94.6794 108.341 94.7467 108.494 94.8765C108.645 95.0063 108.722 95.1889 108.722 95.4172C108.722 95.6455 108.65 95.8353 108.506 96.0084C108.363 96.1814 108.152 96.3496 107.875 96.5106C107.597 96.3496 107.384 96.1814 107.243 96.0084C107.1 95.8353 107.028 95.6359 107.028 95.4172C107.028 95.1985 107.105 95.0063 107.255 94.8765C107.408 94.7443 107.597 94.6794 107.822 94.6794" fill="white"/>
<path d="M102.682 32.8703H96.9628C96.25 32.8703 95.6711 32.2887 95.6711 31.5726V25.8266C95.6711 25.1105 96.25 24.5289 96.9628 24.5289H102.682C103.395 24.5289 103.973 25.1105 103.973 25.8266V31.5726C103.973 32.2887 103.395 32.8703 102.682 32.8703Z" fill="white"/>
<path d="M31.3912 79.1911C31.0253 78.8234 30.5445 78.6407 30.0661 78.6407C29.5877 78.6407 29.1069 78.8234 28.741 79.1911L24.6197 83.3317C23.8878 84.0671 23.8878 85.2614 24.6197 85.9968L28.741 90.1374C29.4729 90.8728 30.6617 90.8728 31.3936 90.1374L35.5149 85.9968C36.2468 85.2614 36.2468 84.0671 35.5149 83.3317L31.3936 79.1911H31.3912Z" fill="white"/>
</svg>
