<svg width="12" height="17" viewBox="0 0 12 17" fill="none" xmlns="http://www.w3.org/2000/svg">
<path d="M11.616 9.328H5.952C4.248 9.328 3.288 10.312 3.288 11.92C3.288 12.688 3.576 13.336 4.128 13.84C4.632 14.32 5.232 14.56 5.88 14.56H9.432V16.888H5.688C4.344 16.888 3.192 16.408 2.232 15.448C1.296 14.512 0.816 13.36 0.816 12.016C0.816 10.72 1.2 9.592 1.944 8.608C2.736 7.576 3.744 7.024 5.016 6.952C4.824 6.784 4.656 6.568 4.512 6.328C4.176 5.776 4.008 5.104 4.008 4.336C3.984 3.088 4.44 2.104 5.328 1.384C6.072 0.784 6.984 0.472 8.04 0.472C9.456 0.472 10.584 0.975999 11.424 2.008L10.104 3.784C9.504 3.232 8.928 2.944 8.328 2.944C7.296 2.944 6.552 3.688 6.552 4.744C6.552 6.208 7.488 6.952 9.336 6.952H11.616V9.328Z" fill="white"/>
</svg>
