<svg width="24" height="24" viewBox="0 0 24 24" fill="none" xmlns="http://www.w3.org/2000/svg">
<path d="M20.3948 7.5373H21.5385C22.1097 7.5373 22.6575 7.76423 23.0615 8.16815C23.4654 8.57207 23.6923 9.11991 23.6923 9.69115V13.9988C23.6923 14.5701 23.4654 15.1179 23.0615 15.5218C22.6575 15.9258 22.1097 16.1527 21.5385 16.1527H20.3948C20.1322 18.2347 19.1189 20.1493 17.545 21.5373C15.971 22.9253 13.9447 23.6911 11.8462 23.6911V21.5373C13.5599 21.5373 15.2034 20.8565 16.4152 19.6448C17.6269 18.433 18.3077 16.7895 18.3077 15.0758V8.61423C18.3077 6.90052 17.6269 5.257 16.4152 4.04523C15.2034 2.83345 13.5599 2.15269 11.8462 2.15269C10.1324 2.15269 8.48893 2.83345 7.27716 4.04523C6.06538 5.257 5.38461 6.90052 5.38461 8.61423V16.1527H2.15385C1.58261 16.1527 1.03477 15.9258 0.630847 15.5218C0.226922 15.1179 0 14.5701 0 13.9988V9.69115C0 9.11991 0.226922 8.57207 0.630847 8.16815C1.03477 7.76423 1.58261 7.5373 2.15385 7.5373H3.29754C3.56034 5.4555 4.57378 3.54113 6.14769 2.15341C7.72161 0.765695 9.74783 0 11.8462 0C13.9445 0 15.9707 0.765695 17.5446 2.15341C19.1185 3.54113 20.132 5.4555 20.3948 7.5373ZM2.15385 9.69115V13.9988H3.23077V9.69115H2.15385ZM20.4615 9.69115V13.9988H21.5385V9.69115H20.4615ZM7.28 15.9211L8.42154 14.0947C9.44793 14.7376 10.635 15.0777 11.8462 15.0758C13.0573 15.0777 14.2444 14.7376 15.2708 14.0947L16.4123 15.9211C15.0438 16.7785 13.461 17.2321 11.8462 17.2296C10.2313 17.2321 8.64849 16.7785 7.28 15.9211Z" fill="#6F6AA6"/>
</svg>
