<svg width="31" height="31" viewBox="0 0 31 31" fill="none" xmlns="http://www.w3.org/2000/svg">
<path d="M13.9219 3.60938V1.54688C13.9219 1.13662 14.0848 0.743165 14.3749 0.453069C14.665 0.162974 15.0585 0 15.4688 0C15.879 0 16.2725 0.162974 16.5626 0.453069C16.8526 0.743165 17.0156 1.13662 17.0156 1.54688V3.60938C17.0156 4.01963 16.8526 4.41309 16.5626 4.70318C16.2725 4.99328 15.879 5.15625 15.4688 5.15625C15.0585 5.15625 14.665 4.99328 14.3749 4.70318C14.0848 4.41309 13.9219 4.01963 13.9219 3.60938ZM24.2344 15.4688C24.2344 17.2024 23.7203 18.8972 22.7571 20.3387C21.7939 21.7802 20.4249 22.9037 18.8232 23.5671C17.2215 24.2306 15.459 24.4042 13.7587 24.0659C12.0583 23.7277 10.4964 22.8929 9.27052 21.667C8.04462 20.4411 7.20978 18.8792 6.87155 17.1788C6.53333 15.4785 6.70692 13.716 7.37037 12.1143C8.03382 10.5126 9.15733 9.14358 10.5988 8.1804C12.0403 7.21722 13.7351 6.70312 15.4688 6.70312C17.7928 6.70551 20.021 7.6298 21.6643 9.27316C23.3077 10.9165 24.232 13.1447 24.2344 15.4688ZM21.1406 15.4688C21.1406 14.347 20.808 13.2504 20.1847 12.3176C19.5615 11.3849 18.6757 10.6579 17.6393 10.2286C16.6029 9.79933 15.4625 9.68701 14.3622 9.90586C13.262 10.1247 12.2514 10.6649 11.4581 11.4581C10.6649 12.2514 10.1247 13.262 9.90586 14.3622C9.68701 15.4625 9.79933 16.6029 10.2286 17.6393C10.6579 18.6757 11.3849 19.5615 12.3176 20.1847C13.2504 20.808 14.347 21.1406 15.4688 21.1406C16.9725 21.1389 18.4142 20.5408 19.4775 19.4775C20.5408 18.4142 21.1389 16.9725 21.1406 15.4688ZM5.60871 7.79754C5.7526 7.94143 5.92342 8.05557 6.11142 8.13344C6.29942 8.21131 6.50092 8.25139 6.70441 8.25139C6.9079 8.25139 7.1094 8.21131 7.2974 8.13344C7.48541 8.05557 7.65623 7.94143 7.80012 7.79754C7.94401 7.65365 8.05815 7.48283 8.13602 7.29483C8.21389 7.10682 8.25397 6.90533 8.25397 6.70184C8.25397 6.49835 8.21389 6.29685 8.13602 6.10885C8.05815 5.92084 7.94401 5.75002 7.80012 5.60613L6.25324 4.05926C5.96264 3.76866 5.56851 3.6054 5.15754 3.6054C4.74657 3.6054 4.35243 3.76866 4.06184 4.05926C3.77124 4.34986 3.60798 4.74399 3.60798 5.15496C3.60798 5.56593 3.77124 5.96007 4.06184 6.25066L5.60871 7.79754ZM5.60871 23.1374L4.06184 24.6843C3.91795 24.8281 3.80381 24.999 3.72593 25.187C3.64806 25.375 3.60798 25.5765 3.60798 25.78C3.60798 25.9835 3.64806 26.1849 3.72593 26.373C3.80381 26.561 3.91795 26.7318 4.06184 26.8757C4.35243 27.1663 4.74657 27.3295 5.15754 27.3295C5.36103 27.3295 5.56253 27.2894 5.75053 27.2116C5.93853 27.1337 6.10935 27.0196 6.25324 26.8757L7.80012 25.3288C8.09072 25.0382 8.25397 24.6441 8.25397 24.2331C8.25397 23.8221 8.09072 23.428 7.80012 23.1374C7.50952 22.8468 7.11538 22.6835 6.70441 22.6835C6.29345 22.6835 5.89931 22.8468 5.60871 23.1374ZM24.2344 8.25C24.4376 8.25016 24.6388 8.21028 24.8266 8.13265C25.0144 8.05501 25.185 7.94114 25.3288 7.79754L26.8757 6.25066C27.0196 6.10677 27.1337 5.93595 27.2116 5.74795C27.2894 5.55995 27.3295 5.35845 27.3295 5.15496C27.3295 4.95147 27.2894 4.74997 27.2116 4.56197C27.1337 4.37397 27.0196 4.20315 26.8757 4.05926C26.7318 3.91537 26.561 3.80123 26.373 3.72336C26.1849 3.64548 25.9835 3.6054 25.78 3.6054C25.5765 3.6054 25.375 3.64548 25.187 3.72336C24.999 3.80123 24.8281 3.91537 24.6843 4.05926L23.1374 5.60613C22.9198 5.82249 22.7714 6.09869 22.7112 6.39959C22.651 6.7005 22.6816 7.01252 22.7992 7.29596C22.9168 7.57941 23.1161 7.82146 23.3716 7.99135C23.6272 8.16123 23.9275 8.25127 24.2344 8.25ZM25.3288 23.14C25.0382 22.8494 24.6441 22.6861 24.2331 22.6861C23.8221 22.6861 23.428 22.8494 23.1374 23.14C22.8468 23.4306 22.6835 23.8247 22.6835 24.2357C22.6835 24.6466 22.8468 25.0408 23.1374 25.3314L24.6843 26.8782C24.9749 27.1688 25.369 27.3321 25.78 27.3321C26.1909 27.3321 26.5851 27.1688 26.8757 26.8782C27.1663 26.5876 27.3295 26.1935 27.3295 25.7825C27.3295 25.3716 27.1663 24.9774 26.8757 24.6868L25.3288 23.14ZM5.15625 15.4688C5.15625 15.0585 4.99328 14.665 4.70318 14.3749C4.41309 14.0848 4.01963 13.9219 3.60938 13.9219H1.54688C1.13662 13.9219 0.743165 14.0848 0.453069 14.3749C0.162974 14.665 0 15.0585 0 15.4688C0 15.879 0.162974 16.2725 0.453069 16.5626C0.743165 16.8526 1.13662 17.0156 1.54688 17.0156H3.60938C4.01963 17.0156 4.41309 16.8526 4.70318 16.5626C4.99328 16.2725 5.15625 15.879 5.15625 15.4688ZM15.4688 25.7812C15.0585 25.7812 14.665 25.9442 14.3749 26.2343C14.0848 26.5244 13.9219 26.9179 13.9219 27.3281V29.3906C13.9219 29.8009 14.0848 30.1943 14.3749 30.4844C14.665 30.7745 15.0585 30.9375 15.4688 30.9375C15.879 30.9375 16.2725 30.7745 16.5626 30.4844C16.8526 30.1943 17.0156 29.8009 17.0156 29.3906V27.3281C17.0156 26.9179 16.8526 26.5244 16.5626 26.2343C16.2725 25.9442 15.879 25.7812 15.4688 25.7812ZM29.3906 13.9219H27.3281C26.9179 13.9219 26.5244 14.0848 26.2343 14.3749C25.9442 14.665 25.7812 15.0585 25.7812 15.4688C25.7812 15.879 25.9442 16.2725 26.2343 16.5626C26.5244 16.8526 26.9179 17.0156 27.3281 17.0156H29.3906C29.8009 17.0156 30.1943 16.8526 30.4844 16.5626C30.7745 16.2725 30.9375 15.879 30.9375 15.4688C30.9375 15.0585 30.7745 14.665 30.4844 14.3749C30.1943 14.0848 29.8009 13.9219 29.3906 13.9219Z" fill="#6F6AA6"/>
</svg>
