<svg width="22" height="27" viewBox="0 0 22 27" fill="none" xmlns="http://www.w3.org/2000/svg">
<path d="M10.6947 5.03846C11.8099 5.03846 12.7139 4.13442 12.7139 3.01923C12.7139 1.90404 11.8099 1 10.6947 1C9.57951 1 8.67547 1.90404 8.67547 3.01923C8.67547 4.13442 9.57951 5.03846 10.6947 5.03846Z" stroke="#D0CEE3" stroke-width="2" stroke-linejoin="round"/>
<path d="M8.08131 14.0463C8.22771 13.1346 8.29333 12.2532 8.05607 11.6439C7.85415 11.1199 7.41497 10.8266 6.88492 10.6267L2.21393 9.11529C1.60816 8.91337 1.04227 8.57515 1.00239 7.90678C0.951911 7.04861 1.70912 6.49332 2.46633 6.69524C2.46633 6.69524 6.90864 8.26722 10.6947 8.26722C14.4808 8.26722 18.8726 6.70231 18.8726 6.70231C19.7812 6.44991 20.387 7.15664 20.387 7.90325C20.387 8.62058 19.8317 8.87299 19.1755 9.11176L14.7332 10.7226C14.3293 10.874 13.6731 11.1769 13.4207 11.6403C13.1178 12.183 13.1683 13.131 13.3147 14.0427L13.6125 15.5385L15.501 23.8123C15.6423 24.4761 15.1829 25.0965 14.5216 25.2126C13.8604 25.3287 13.3197 24.8774 13.1238 24.2353L11.2278 18.3831C11.1366 18.1024 11.0558 17.8185 10.9855 17.5315L10.6947 16.3462L10.4272 17.4391C10.3423 17.7874 10.2447 18.132 10.1344 18.4729L8.27162 24.2303C8.0697 24.8789 7.53965 25.3282 6.87835 25.2126C6.21706 25.097 5.74759 24.4256 5.896 23.8123L7.78347 15.542L8.08131 14.0463Z" stroke="#D0CEE3" stroke-width="2" stroke-linejoin="round"/>
</svg>
