<svg width="38" height="25" viewBox="0 0 38 25" fill="none" xmlns="http://www.w3.org/2000/svg">
<path d="M13.7431 1.0773C13.5896 0.755201 13.3463 0.482847 13.0417 0.292076C12.7371 0.101306 12.3837 0 12.0229 0C11.6621 0 11.3087 0.101306 11.0041 0.292076C10.6995 0.482847 10.4562 0.755201 10.3027 1.0773L0.165276 22.3263C-0.03766 22.7745 -0.0543615 23.2832 0.118758 23.7434C0.291877 24.2035 0.641012 24.5783 1.0912 24.7874C1.54138 24.9964 2.05672 25.023 2.52655 24.8614C2.99638 24.6998 3.38325 24.363 3.60408 23.9231L6.07349 18.7499H17.9723L20.4401 23.9231C20.6548 24.3732 21.0419 24.7206 21.5163 24.8891C21.9907 25.0576 22.5135 25.0333 22.9697 24.8215C23.4259 24.6098 23.7782 24.228 23.949 23.76C24.1198 23.2921 24.0952 22.7764 23.8805 22.3263L13.7431 1.0773ZM7.86337 15.0001L12.0229 6.27863L16.184 15.0001H7.86337ZM31.0305 6.25051C28.8367 6.25051 27.107 6.85361 25.8905 8.04418C25.6992 8.21417 25.545 8.42072 25.437 8.65131C25.3291 8.8819 25.2698 9.13171 25.2627 9.38558C25.2556 9.63946 25.3009 9.89211 25.3958 10.1282C25.4907 10.3643 25.6333 10.5789 25.8148 10.759C25.9963 10.9391 26.213 11.081 26.4518 11.176C26.6906 11.271 26.9465 11.3171 27.2039 11.3117C27.4613 11.3062 27.7149 11.2491 27.9493 11.1441C28.1837 11.039 28.394 10.888 28.5675 10.7003C29.0426 10.2316 29.8758 9.99409 31.0305 9.99409C32.7729 9.99409 34.1985 11.1159 34.1985 12.494V13.1799C33.2055 12.7279 32.1241 12.4959 31.0305 12.5002C27.1878 12.5002 24.0611 15.3032 24.0611 18.7499C24.0611 22.1967 27.1878 24.9997 31.0305 24.9997C32.2441 25.0027 33.4401 24.7142 34.5153 24.1591C34.7409 24.4946 35.07 24.7495 35.4539 24.8862C35.8378 25.0229 36.2561 25.0341 36.6469 24.9181C37.0378 24.8021 37.3804 24.565 37.6241 24.2421C37.8677 23.9191 37.9995 23.5273 38 23.1247V12.5002C38 9.05351 34.8732 6.25051 31.0305 6.25051ZM31.0305 21.2498C29.2882 21.2498 27.8626 20.128 27.8626 18.7499C27.8626 17.3719 29.2882 16.2501 31.0305 16.2501C32.7729 16.2501 34.1985 17.3719 34.1985 18.7499C34.1985 20.128 32.7729 21.2498 31.0305 21.2498Z" fill="#6F6AA6"/>
</svg>
