<svg width="36" height="23" viewBox="0 0 36 23" fill="none" xmlns="http://www.w3.org/2000/svg">
<path d="M29.8469 18.4655C29.9256 18.5439 29.988 18.637 30.0306 18.7396C30.0732 18.8422 30.0951 18.9521 30.0951 19.0632C30.0951 19.1742 30.0732 19.2842 30.0306 19.3867C29.988 19.4893 29.9256 19.5824 29.8469 19.6608L27.5969 21.9108C27.5185 21.9895 27.4254 22.0519 27.3228 22.0945C27.2203 22.1371 27.1103 22.159 26.9993 22.159C26.8882 22.159 26.7783 22.1371 26.6757 22.0945C26.5731 22.0519 26.48 21.9895 26.4016 21.9108L24.1516 19.6608C23.9931 19.5023 23.9041 19.2873 23.9041 19.0632C23.9041 18.839 23.9931 18.624 24.1516 18.4655C24.3101 18.307 24.5251 18.218 24.7493 18.218C24.9734 18.218 25.1884 18.307 25.3469 18.4655L26.1562 19.2734V8.72653L25.3469 9.53442C25.2684 9.61291 25.1753 9.67516 25.0727 9.71764C24.9702 9.76012 24.8603 9.78198 24.7493 9.78198C24.5251 9.78198 24.3101 9.69293 24.1516 9.53442C24.0731 9.45593 24.0109 9.36276 23.9684 9.26021C23.9259 9.15767 23.9041 9.04776 23.9041 8.93676C23.9041 8.7126 23.9931 8.49762 24.1516 8.33911L26.4016 6.08911C26.48 6.01045 26.5731 5.94804 26.6757 5.90545C26.7783 5.86286 26.8882 5.84094 26.9993 5.84094C27.1103 5.84094 27.2203 5.86286 27.3228 5.90545C27.4254 5.94804 27.5185 6.01045 27.5969 6.08911L29.8469 8.33911C30.0054 8.49762 30.0945 8.7126 30.0945 8.93676C30.0945 9.16093 30.0054 9.37591 29.8469 9.53442C29.6884 9.69293 29.4734 9.78198 29.2493 9.78198C29.0251 9.78198 28.8101 9.69293 28.6516 9.53442L27.8437 8.72653V19.2734L28.653 18.4634C28.7315 18.3851 28.8247 18.323 28.9272 18.2807C29.0297 18.2385 29.1395 18.2168 29.2504 18.217C29.3613 18.2172 29.471 18.2392 29.5734 18.2819C29.6758 18.3245 29.7687 18.3869 29.8469 18.4655Z" fill="#6F6AA6"/>
<path d="M22.9688 1.64062V6.01562C22.9688 6.45075 22.7959 6.86805 22.4882 7.17572C22.1805 7.4834 21.7632 7.65625 21.3281 7.65625C20.893 7.65625 20.4757 7.4834 20.168 7.17572C19.8604 6.86805 19.6875 6.45075 19.6875 6.01562V3.28125H13.125V19.6875H15.8594C16.2945 19.6875 16.7118 19.8604 17.0195 20.168C17.3271 20.4757 17.5 20.893 17.5 21.3281C17.5 21.7632 17.3271 22.1805 17.0195 22.4882C16.7118 22.7959 16.2945 22.9688 15.8594 22.9688H7.10938C6.67425 22.9688 6.25695 22.7959 5.94928 22.4882C5.6416 22.1805 5.46875 21.7632 5.46875 21.3281C5.46875 20.893 5.6416 20.4757 5.94928 20.168C6.25695 19.8604 6.67425 19.6875 7.10938 19.6875H9.84375V3.28125H3.28125V6.01562C3.28125 6.45075 3.1084 6.86805 2.80072 7.17572C2.49305 7.4834 2.07575 7.65625 1.64062 7.65625C1.2055 7.65625 0.788205 7.4834 0.480528 7.17572C0.172851 6.86805 9.16949e-09 6.45075 0 6.01562V1.64062C0 1.2055 0.172851 0.788205 0.480528 0.480528C0.788205 0.172851 1.2055 0 1.64062 0H21.3281C21.7632 0 22.1805 0.172851 22.4882 0.480528C22.7959 0.788205 22.9688 1.2055 22.9688 1.64062Z" fill="#6F6AA6"/>
</svg>
