<svg width="683" height="822" viewBox="0 0 683 822" fill="none" xmlns="http://www.w3.org/2000/svg">
<g opacity="0.15">
<g style="mix-blend-mode:multiply">
<path d="M-206.095 623.563C-191.793 600.395 -175.66 577.527 -157.815 555.107C-149.877 545.142 -141.368 535.047 -129.345 526.999C-98.6348 506.424 -55.1645 505.133 -19.4974 508.961C13.3504 512.485 44.6532 518.931 73.5367 528.129C102.166 537.243 128.946 549.164 161.45 552.716C193.967 556.265 235.106 549.128 259.414 528.06C273.879 515.521 280.224 499.832 280.222 485.612C280.218 471.385 274.42 458.388 267.341 446.151C259.233 432.136 249.192 417.984 252.273 401.341C255.454 384.113 273.948 366.26 297.55 357.628C331.127 345.35 365.777 352.195 398.209 356.104C439.41 361.067 485.404 360.317 528.622 345.994C571.829 331.682 610.906 301.406 616.092 270.305" stroke="#4D2161" stroke-width="2" stroke-miterlimit="10"/>
<path d="M-199.869 628.111C-185.846 605.333 -169.88 582.867 -152.173 560.903C-144.298 551.142 -135.849 541.258 -124.044 533.344C-100.331 517.45 -69.0277 512.947 -39.6903 513.317C-31.6998 513.412 -23.8462 513.873 -16.3336 514.557C15.9712 517.513 46.8431 523.36 75.4406 531.899C103.773 540.365 130.279 551.711 162.369 554.907C180.356 556.697 200.732 555.584 219.756 550.931C236.331 546.874 251.96 540.024 263.79 530.008C265.908 528.218 267.857 526.362 269.643 524.457C280.677 512.674 285.469 498.947 285.631 486.271C285.681 482.2 285.296 478.219 284.583 474.317C282.712 464.14 278.638 454.478 274.07 445.207C266.838 430.487 258.603 415.661 262.603 398.787C266.582 382.025 284.273 364.759 307.29 356.252C340.04 344.152 373.818 350.278 405.364 353.508C407.844 353.76 410.359 353.994 412.866 354.203C450.937 357.369 492.369 355.203 531.157 341.688C572.524 327.274 609.608 297.682 614.039 267.472" stroke="#5F34A7" stroke-width="2" stroke-miterlimit="10"/>
<path d="M-193.644 632.65C-179.887 610.259 -164.112 588.21 -146.521 566.687C-138.71 557.121 -130.306 547.454 -118.719 539.673C-95.4424 524.047 -64.8561 519.31 -36.1113 519.269C-28.2755 519.249 -20.5666 519.585 -13.1738 520.135C18.5902 522.533 49.0414 527.768 77.3405 535.651C105.377 543.469 131.628 554.218 163.271 557.084C181.89 558.77 202.819 557.7 222.487 553.072C239.57 549.044 255.835 542.151 268.153 531.95C270.355 530.127 272.399 528.225 274.276 526.258C285.829 514.166 290.718 500.03 291.048 486.908C291.152 482.698 290.822 478.578 290.18 474.549C288.505 464.023 284.82 453.93 280.794 444.246C274.454 428.825 267.977 413.347 272.928 396.206C277.63 379.933 294.577 363.227 317.008 354.846C348.931 342.925 381.838 348.331 412.497 350.881C414.909 351.083 417.352 351.258 419.791 351.416C456.754 353.79 496.628 350.963 533.699 337.353C573.214 322.849 608.317 293.93 611.992 264.61" stroke="#6F6AA6" stroke-width="2" stroke-miterlimit="10"/>
<path d="M-187.417 637.198C-173.924 615.201 -158.328 593.558 -140.878 572.482C-133.117 563.116 -124.786 553.665 -113.402 546.023C-90.5466 530.669 -60.6919 525.693 -32.5248 525.246C-24.829 525.116 -17.2672 525.318 -9.99405 525.735C21.2269 527.565 51.2573 532.189 79.2604 539.425C107.001 546.595 133.02 556.731 164.206 559.278C183.467 560.849 204.94 559.833 225.237 555.235C242.829 551.236 259.741 544.288 272.546 533.901C274.845 532.041 276.972 530.098 278.929 528.081C290.985 515.675 295.975 501.139 296.473 487.57C296.633 483.229 296.357 478.969 295.797 474.801C294.316 463.919 291.012 453.415 287.526 443.309C282.064 427.183 277.328 411.094 283.262 393.659C288.625 377.892 304.893 361.737 326.752 353.477C357.847 341.734 389.884 346.421 419.656 348.292C421.998 348.443 424.361 348.57 426.741 348.666C462.605 350.237 500.922 346.747 536.25 333.051C573.914 318.457 607.023 290.213 609.943 261.784" stroke="#DCDBEB" stroke-width="2" stroke-miterlimit="10"/>
<path d="M-181.19 641.746C-167.976 620.14 -152.547 598.899 -135.225 578.266C-127.529 569.096 -119.254 559.872 -108.091 552.356C-85.6686 537.279 -56.5331 532.061 -28.9438 531.206C-21.4028 530.963 -13.9731 531.034 -6.83225 531.322C23.8479 532.594 53.4576 536.606 81.1623 543.186C108.595 549.712 134.389 559.215 165.11 561.464C185.014 562.919 207.027 561.95 227.957 557.389C246.06 553.427 263.606 546.428 276.895 535.847C279.28 533.954 281.502 531.966 283.538 529.899C296.111 517.175 301.199 502.231 301.852 488.219C302.054 483.742 301.847 479.348 301.356 475.045C300.084 463.81 297.146 452.891 294.213 442.359C289.627 425.528 286.601 408.854 293.538 391.102C299.509 375.848 315.162 360.225 336.425 352.103C366.693 340.538 397.856 344.497 426.744 345.696C429.015 345.789 431.309 345.866 433.608 345.915C468.363 346.693 505.135 342.538 538.734 328.752C574.546 314.067 605.673 286.495 607.837 258.957" stroke="#D8D6E7" stroke-width="2" stroke-miterlimit="10"/>
<path d="M-174.963 646.293C-162.015 625.074 -146.764 604.247 -129.57 584.058C-121.936 575.091 -113.722 566.08 -102.761 558.702C-80.7603 543.897 -52.3564 538.441 -25.3448 537.179C-17.9586 536.822 -10.6737 536.767 -3.65016 536.93C26.487 537.634 55.6658 541.047 83.072 546.971C110.206 552.842 135.776 561.711 166.019 563.666C186.563 564.997 209.122 564.091 230.683 559.559C249.294 555.626 267.477 548.584 281.265 537.814C283.747 535.883 286.052 533.854 288.181 531.734C301.273 518.7 306.446 503.351 307.28 488.889C307.538 484.281 307.383 479.739 306.976 475.306C305.9 463.722 303.313 452.383 300.959 441.427C297.201 423.905 295.898 406.643 303.887 388.559C310.404 373.836 325.493 358.739 346.168 350.735C375.609 339.347 405.901 342.587 433.902 343.107C436.105 343.149 438.327 343.167 440.557 343.165C474.204 343.151 509.429 338.323 541.285 324.45C575.259 309.671 604.377 282.771 605.801 256.128" stroke="#784460" stroke-width="2" stroke-miterlimit="10"/>
<path d="M-168.75 650.836C-156.069 630.003 -140.998 609.582 -123.942 589.848C-116.371 581.085 -108.216 572.286 -97.4615 565.039C-75.8943 550.51 -48.2096 544.811 -21.778 543.135C-14.5341 542.659 -7.39389 542.479 -0.490161 542.509C29.1062 542.654 57.8643 545.455 84.9698 550.715C111.808 555.938 137.159 564.146 166.932 565.831C188.128 567.035 211.232 566.191 233.411 561.692C252.534 557.797 271.35 550.703 285.636 539.736C288.213 537.76 290.602 535.697 292.812 533.527C306.407 520.18 311.693 504.427 312.682 489.522C312.995 484.774 312.896 480.101 312.558 475.533C311.676 463.593 309.471 451.842 307.667 440.453C304.783 422.218 305.107 404.413 314.197 385.974C321.193 371.784 335.782 357.203 355.887 349.329C384.501 338.12 413.921 340.64 441.034 340.472C443.167 340.463 445.319 340.422 447.468 340.373C480.016 339.556 513.685 334.074 543.812 320.111C575.932 305.234 603.071 279.013 603.739 253.261" stroke="#794D65" stroke-width="2" stroke-miterlimit="10"/>
<path d="M-162.523 655.384C-150.121 634.941 -135.214 614.93 -118.287 595.64C-110.769 587.07 -102.684 578.494 -92.1349 571.377C-70.9889 557.12 -44.0234 551.18 -18.182 549.1C-11.0929 548.51 -4.09497 548.212 2.68665 548.101C31.74 547.679 60.0773 549.869 86.8867 554.481C113.428 559.056 138.573 566.6 167.851 568.022C189.71 569.086 213.337 568.321 236.146 563.851C255.777 559.985 275.24 552.836 290.003 541.695C292.665 539.686 295.149 537.578 297.439 535.358C311.553 521.701 316.922 505.535 318.081 490.192C318.448 485.305 318.406 480.5 318.149 475.794C317.476 463.501 315.634 451.327 314.386 439.52C312.379 420.58 314.29 402.235 324.518 383.431C331.941 369.78 346.098 355.713 365.604 347.968C393.379 336.941 421.941 338.738 448.167 337.891C450.229 337.823 452.314 337.739 454.391 337.631C485.831 336.022 517.953 329.867 546.338 315.817C576.607 300.849 601.764 275.301 601.664 250.444" stroke="#7B556B" stroke-width="2" stroke-miterlimit="10"/>
<path d="M-156.297 659.931C-144.161 639.876 -129.434 620.27 -112.647 601.427C-105.191 593.06 -97.1669 584.696 -86.8333 577.722C-66.1085 563.737 -39.8777 557.595 -14.6234 555.076C-7.68678 554.38 -0.823468 553.944 5.83839 553.699C34.351 552.719 62.2675 554.297 88.7786 558.254C115.024 562.181 139.971 569.04 168.757 570.215C191.267 571.144 215.427 570.445 238.868 566.013C259.011 562.184 279.108 554.984 294.368 543.646C297.127 541.599 299.692 539.441 302.076 537.176C316.694 523.205 322.175 506.635 323.503 490.846C323.926 485.827 323.938 480.883 323.751 476.042C323.272 463.393 321.811 450.808 321.102 438.579C319.972 418.933 323.421 400.063 334.834 380.871C342.632 367.765 356.394 354.201 375.315 346.582C402.263 335.733 429.953 336.811 455.292 335.284C457.286 335.165 459.287 335.027 461.296 334.868C491.627 332.467 522.192 325.65 548.859 311.506C577.276 296.448 600.439 271.576 599.596 247.605" stroke="#7D5E70" stroke-width="2" stroke-miterlimit="10"/>
<path d="M-150.069 664.479C-138.212 644.813 -123.665 625.613 -106.991 607.219C-99.6002 599.048 -91.6338 590.904 -81.5057 584.059C-61.2146 570.351 -35.7029 563.966 -11.0264 561.04C-4.24453 560.231 2.47409 559.669 9.01619 559.291C36.9857 557.743 64.4714 558.722 90.6965 562.019C116.644 565.291 141.392 571.465 169.678 572.405C192.86 573.183 217.532 572.574 241.617 568.167C262.268 564.368 283.002 557.124 298.761 545.597C301.605 543.517 304.277 541.31 306.73 538.999C321.863 524.71 327.43 507.735 328.928 491.508C329.393 486.353 329.472 481.267 329.368 476.295C329.085 463.297 328.001 450.285 327.847 437.638C327.594 417.288 332.526 397.89 345.181 378.32C353.299 365.758 366.736 352.704 385.071 345.21C411.192 334.539 438.021 334.886 462.463 332.691C464.388 332.522 466.318 332.324 468.258 332.115C497.494 328.918 526.498 321.431 551.424 307.201C578.002 292.049 599.171 267.852 597.572 244.772" stroke="#7F6775" stroke-width="2" stroke-miterlimit="10"/>
<path d="M-143.844 669.019C-132.254 649.74 -117.884 630.953 -101.338 613.003C-93.9979 605.032 -86.1041 597.103 -76.1793 590.397C-56.3117 576.953 -31.5269 570.346 -7.43284 566.997C-0.803429 566.081 5.78062 565.382 12.203 564.871C39.6318 562.764 66.6967 563.131 92.6234 565.773C118.262 568.4 142.831 573.866 170.619 574.58C194.459 575.202 219.659 574.688 244.374 570.31C265.537 566.548 286.902 559.245 303.148 547.532C306.089 545.415 308.844 543.167 311.377 540.806C327.029 526.207 332.694 508.824 334.345 492.146C334.866 486.86 335 481.634 334.977 476.523C334.901 463.165 334.197 449.742 334.583 436.674C335.22 415.615 341.568 395.692 355.52 375.745C363.928 363.717 377.054 351.177 394.807 343.817C420.1 333.325 446.058 332.952 469.601 330.081C471.455 329.853 473.319 329.613 475.175 329.348C503.299 325.351 530.761 317.207 553.957 302.886C578.682 287.636 597.859 264.123 595.504 241.934" stroke="#816F7A" stroke-width="2" stroke-miterlimit="10"/>
<path d="M-137.63 673.57C-126.306 654.677 -112.113 636.305 -95.7108 618.794C-88.4328 611.026 -80.5969 603.318 -70.8925 596.738C-51.4585 583.57 -27.393 576.721 -3.87656 572.965C2.61052 571.931 9.04986 571.106 15.3423 570.473C42.228 567.799 68.8723 567.555 94.4881 569.544C119.831 571.525 144.204 576.269 171.486 576.777C195.994 577.232 221.722 576.811 247.057 572.475C268.728 568.742 290.742 561.392 307.473 549.486C310.512 547.331 313.349 545.041 315.972 542.619C332.128 527.706 337.893 509.923 339.724 492.795C340.3 487.369 340.49 482.012 340.536 476.766C340.656 463.06 340.329 449.209 341.27 435.724C342.784 413.959 350.515 393.493 365.796 373.188C374.452 361.689 387.313 349.677 404.478 342.435C428.944 332.12 454.031 331.028 476.687 327.477C478.472 327.198 480.265 326.899 482.052 326.584C509.068 321.795 534.983 312.978 556.436 298.57C579.309 283.229 596.505 260.389 593.395 239.091" stroke="#837880" stroke-width="2" stroke-miterlimit="10"/>
<path d="M-131.403 678.118C-120.358 659.615 -106.33 641.653 -90.0558 624.586C-82.8428 617.014 -75.0647 609.525 -65.5657 603.075C-46.553 590.18 -23.2066 583.089 -0.280394 578.93C6.05188 577.782 12.3465 576.831 18.5317 576.061C44.8767 572.828 71.1002 571.973 96.4175 573.306C121.464 574.639 145.657 578.667 172.418 578.963C197.604 579.239 223.839 578.937 249.805 574.629C271.987 570.934 294.635 563.532 311.853 551.441C314.976 549.253 317.909 546.917 320.612 544.445C337.284 529.215 343.147 511.024 345.136 493.461C345.768 487.904 346.01 482.399 346.14 477.023C346.457 462.968 346.548 448.695 348.002 434.787C350.457 412.308 359.436 391.294 376.13 370.641C384.994 359.673 397.639 348.175 414.22 341.066C437.859 330.93 462.075 329.118 483.845 324.888C485.561 324.558 487.282 324.2 488.989 323.838C514.896 318.257 539.266 308.775 558.99 294.277C580.011 278.846 595.213 256.681 591.36 236.27" stroke="#858085" stroke-width="2" stroke-miterlimit="10"/>
<path d="M-125.176 682.666C-114.397 664.55 -100.549 646.993 -84.4129 630.381C-77.25 623.009 -69.5446 615.736 -60.2488 609.425C-41.6698 596.806 -19.0426 589.473 3.3036 584.899C9.48108 583.637 15.6459 582.564 21.6965 581.657C47.5007 577.865 73.3034 576.398 98.3224 577.075C123.073 577.76 147.08 581.056 173.337 581.154C199.189 581.254 225.944 581.066 252.54 576.788C275.231 573.121 298.515 565.677 316.23 553.388C319.452 551.163 322.466 548.786 325.25 546.264C342.441 530.724 348.389 512.128 350.546 494.119C351.22 488.426 351.53 482.786 351.73 477.275C352.24 462.863 352.71 448.172 354.706 433.85C358.051 410.662 368.27 389.076 386.437 368.093C395.49 357.636 407.925 346.675 423.924 339.701C446.736 329.742 470.08 327.212 490.963 322.302C492.608 321.913 494.263 321.513 495.898 321.091C520.707 314.707 543.519 304.563 561.514 289.974C580.696 274.449 593.903 252.96 589.283 233.444" stroke="#87898A" stroke-width="2" stroke-miterlimit="10"/>
<path d="M-118.951 687.205C-108.438 669.476 -94.768 652.333 -78.7599 636.164C-71.6618 628.988 -64.0143 621.935 -54.9365 615.758C-36.7787 603.411 -14.8831 595.839 6.87288 590.862C12.908 589.482 18.9156 588.287 24.8465 587.247C50.1077 582.888 75.4795 580.821 100.213 580.84C124.665 580.869 148.499 583.428 174.23 583.343C199.96 583.257 228.02 583.185 255.249 578.945C278.435 575.311 302.366 567.811 320.583 555.342C323.887 553.075 326.999 550.661 329.875 548.086C347.57 532.232 353.628 513.223 355.956 494.776C356.686 488.952 357.051 483.172 357.332 477.523C358.051 462.759 358.899 447.648 361.436 432.905C365.658 409.011 377.065 386.816 396.768 365.537C405.98 355.582 418.239 345.177 433.665 338.324C455.649 328.543 478.12 325.285 498.119 319.704C499.695 319.265 501.267 318.809 502.833 318.337C526.533 311.161 547.788 300.354 564.053 285.676C581.384 270.06 592.609 249.243 587.233 230.618" stroke="#89928F" stroke-width="2" stroke-miterlimit="10"/>
<path d="M-112.724 691.753C-102.488 674.422 -88.9876 657.673 -73.1077 641.948C-66.0722 634.976 -58.4849 628.135 -49.6127 622.088C-31.8885 610.017 -10.702 602.192 10.4662 596.819C16.3465 595.325 22.2219 594.001 28.033 592.828C52.7535 587.909 77.7022 585.223 102.139 584.593C126.295 583.975 149.942 585.793 175.171 585.518C202.382 585.224 230.146 585.299 258.006 581.088C281.704 577.492 306.281 569.937 324.97 557.277C328.371 554.974 331.566 552.518 334.522 549.893C352.736 533.73 358.879 514.316 361.372 495.414C362.157 489.451 362.578 483.54 362.928 477.756C363.841 462.635 365.068 447.105 368.16 431.944C373.259 407.346 385.792 384.514 407.092 362.957C416.456 353.48 428.555 343.642 443.382 336.919C464.54 327.316 486.14 323.339 505.252 317.078C506.759 316.588 508.26 316.073 509.757 315.551C532.349 307.582 552.056 296.103 566.591 281.334C582.069 265.62 591.302 245.487 585.183 227.749" stroke="#8B9A95" stroke-width="2" stroke-miterlimit="10"/>
<path d="M-106.51 696.304C-96.5404 679.36 -83.2295 663.028 -67.4777 647.747C-60.4924 640.975 -52.9777 634.35 -44.3087 628.441C-27.0057 616.643 -6.55082 608.579 14.0397 602.799C19.7652 601.191 25.4959 599.741 31.1873 598.435C55.3646 592.949 79.895 589.659 104.021 588.378C127.869 587.115 151.35 588.178 176.055 587.727C203.947 587.217 232.216 587.447 260.718 583.261C284.925 579.694 310.139 572.097 329.327 559.248C332.826 556.907 336.103 554.41 339.14 551.735C357.857 535.257 364.113 515.44 366.761 496.095C367.6 489.993 368.076 483.942 368.51 478.028C369.619 462.558 371.224 446.609 374.868 431.023C380.847 405.727 394.436 382.201 417.403 360.425C426.892 351.424 438.848 342.167 453.09 335.57C473.408 326.149 494.15 321.448 512.375 314.508C513.811 313.959 515.242 313.393 516.659 312.823C538.155 304.06 556.305 291.919 569.097 277.063C582.723 261.259 589.975 241.798 583.1 224.95" stroke="#8CA39A" stroke-width="2" stroke-miterlimit="10"/>
<path d="M-100.285 700.843C-90.5817 684.286 -77.4505 668.36 -61.8245 653.531C-54.9041 646.954 -47.4472 640.549 -38.9837 634.77C-22.1019 623.245 -2.38111 614.934 17.6317 608.748C23.2149 607.022 28.8009 605.446 34.3749 604.014C58.0115 597.97 82.1211 594.068 105.946 592.123C129.498 590.213 152.799 590.514 176.98 589.889C205.551 589.156 234.337 589.536 263.459 585.391C288.177 581.862 314.025 574.212 333.71 561.166C337.294 558.792 340.666 556.249 343.796 553.521C363.029 536.726 369.371 516.504 372.202 496.717C373.085 490.487 373.627 484.294 374.13 478.244C375.445 462.414 377.432 446.054 381.604 430.05C388.471 404.045 403.05 379.781 427.728 357.845C437.347 349.293 449.153 340.636 462.824 334.168C482.315 324.926 502.185 319.506 519.524 311.886C520.891 311.286 522.254 310.67 523.599 310.041C543.984 300.477 560.589 287.671 571.652 272.725C583.439 256.826 588.684 238.045 581.054 222.089" stroke="#8EAC9F" stroke-width="2" stroke-miterlimit="10"/>
<path d="M-94.0581 705.391C-84.6338 689.224 -71.6675 673.708 -56.1845 659.318C-49.3267 652.945 -41.9277 646.76 -33.6822 641.116C-17.2364 629.858 1.7605 621.288 21.2027 614.72C26.6287 612.872 32.0849 611.174 37.5266 609.613C60.6202 603.002 84.2989 598.501 107.838 595.896C131.092 593.33 154.212 592.87 177.887 592.082C207.147 591.115 236.429 591.669 266.182 587.553C291.408 584.053 317.89 576.352 338.063 563.12C341.744 560.709 345.211 558.121 348.408 555.347C368.16 538.242 374.599 517.612 377.586 497.382C378.523 491.013 379.122 484.688 379.706 478.5C381.218 462.322 383.581 445.534 388.307 429.112C396.052 402.403 411.562 377.338 438.034 355.297C447.78 347.185 459.453 339.141 472.525 332.795C491.188 323.73 510.187 317.591 526.64 309.291C527.938 308.641 529.229 307.966 530.503 307.278C549.78 296.922 564.84 283.45 574.161 268.418C584.096 252.429 587.36 234.32 578.974 219.254" stroke="#90B4A4" stroke-width="2" stroke-miterlimit="10"/>
<path d="M-87.8312 709.939C-78.6733 694.158 -65.8868 679.048 -50.5296 665.11C-43.7242 658.929 -36.3955 652.967 -28.3556 647.453C-12.331 636.468 5.93426 627.66 24.7987 620.685C30.07 618.723 35.3838 616.907 40.7159 615.201C63.2687 608.031 86.5244 602.91 109.768 599.658C132.725 596.444 155.663 595.216 178.818 594.269C208.762 593.05 238.546 593.794 268.929 589.708C294.667 586.245 321.783 578.493 342.455 565.072C346.221 562.627 349.781 559.986 353.06 557.17C373.316 539.752 379.853 518.713 383.01 498.045C384.004 491.544 384.654 485.071 385.31 478.757C387.018 462.23 389.76 445.023 395.039 428.176C403.661 400.761 420.054 374.83 448.367 352.75C458.235 345.053 469.767 337.642 482.255 331.43C500.094 322.552 518.229 315.673 533.785 306.706C535.012 305.997 536.222 305.274 537.428 304.536C555.608 293.384 569.108 279.243 576.699 264.12C584.783 248.041 586.053 230.607 576.924 216.429" stroke="#92BDAA" stroke-width="2" stroke-miterlimit="10"/>
<path d="M-81.6044 714.487C-72.7254 699.096 -60.1038 684.396 -44.8747 670.902C-38.1319 664.925 -30.8634 659.175 -23.029 653.791C-7.43812 643.082 10.1204 634.028 28.3823 626.654C33.4987 624.577 38.6803 622.632 43.8802 620.796C65.8899 613.059 88.7272 607.335 111.672 603.427C134.333 599.566 157.099 597.556 179.737 596.459C210.373 594.968 240.651 595.923 271.664 591.866C297.91 588.432 325.675 580.633 346.819 567.023C350.683 564.541 354.325 561.858 357.695 558.98C378.469 541.252 385.105 519.805 388.429 498.691C389.477 492.05 390.184 485.447 390.921 478.993C392.836 462.106 395.946 444.492 401.778 427.219C411.289 399.096 428.519 372.224 458.709 350.183C468.717 342.878 480.09 336.132 492.005 330.042C509.017 321.342 526.281 313.744 540.95 304.097C542.109 303.337 543.25 302.564 544.384 301.766C561.456 289.823 573.398 275.02 579.26 259.806C585.491 243.629 584.781 226.875 574.884 213.592" stroke="#94C5AF" stroke-width="2" stroke-miterlimit="10"/>
<path d="M-75.3914 719.029C-55.371 684.163 -14.7067 653.162 31.9521 632.617C78.6108 612.073 130.787 601.46 180.63 598.648C211.956 596.878 242.727 598.043 274.373 594.023C306.02 590.003 339.967 579.748 362.309 560.806C390.283 537.091 393.113 506.815 396.497 479.241C402.042 433.904 417.184 383.016 469.001 347.63C494.808 330.006 527.51 317.974 551.265 299.01C584.196 272.718 593.45 234.806 572.79 210.752" stroke="#96CEB4" stroke-width="2" stroke-miterlimit="10"/>
</g>
</g>
</svg>
