<svg width="31" height="34" viewBox="0 0 31 34" fill="none" xmlns="http://www.w3.org/2000/svg">
<g clip-path="url(#clip0_621_3777)">
<path d="M4.29973 21.8542L3.06037 21.216C2.6335 20.9895 2.16477 20.714 2.01889 20.6044C1.87301 20.4948 1.64404 20.2344 1.51021 20.0255C1.37638 19.8172 1.19814 19.3098 1.11315 18.898C1.02879 18.4863 0.884181 17.7748 0.792212 17.317L0.698339 16.8483C0.60637 16.3905 0.464293 15.6572 0.381838 15.2188C0.299383 14.7804 0.230247 14.0404 0.22771 13.5742L0.22327 12.7628C0.220733 12.2965 0.256887 11.5354 0.303189 11.0709L0.357102 10.5314C0.403403 10.0669 0.471905 9.31791 0.509327 8.86618C0.546749 8.41445 0.625398 7.81921 0.68502 7.5443C0.744641 7.26879 0.848662 6.9315 0.917163 6.79465C0.985664 6.6578 1.18229 6.44345 1.35418 6.31871C1.52606 6.19397 1.86667 6.06862 2.1115 6.04077C2.35632 6.01291 2.70517 6.0444 2.88721 6.1104C3.06924 6.17641 3.32866 6.30175 3.46376 6.38955C3.59886 6.47736 3.82339 6.70322 3.96293 6.89275C4.10247 7.08228 4.22489 7.35901 4.23567 7.50797C4.24645 7.65693 4.21981 8.15892 4.17732 8.62336L4.06061 9.89498C4.01811 10.3594 3.99528 11.0679 4.00923 11.4688C4.02319 11.8696 4.10628 12.2783 4.19317 12.3764C4.28007 12.4745 4.42532 12.572 4.51602 12.5932C4.60672 12.6144 4.76592 12.5878 4.86931 12.5339C4.97269 12.48 5.23972 12.0961 5.46172 11.6807L10.6995 1.89409C10.9215 1.47869 11.1752 1.02757 11.2628 0.891325C11.3503 0.755081 11.5133 0.572816 11.6237 0.48683C11.734 0.400845 11.9858 0.300932 12.1825 0.265206C12.3791 0.229479 12.6556 0.205864 12.7971 0.213735C12.9385 0.221002 13.184 0.290032 13.3425 0.366935C13.5011 0.443838 13.7282 0.579477 13.8468 0.66849C13.9654 0.757503 14.1411 0.970045 14.2369 1.1408C14.3326 1.31156 14.4151 1.59314 14.4202 1.76632C14.4252 1.9395 14.3878 2.23439 14.3371 2.42211C14.2863 2.60982 14.1468 3.01311 14.0282 3.3189C13.9089 3.6247 13.7053 4.1067 13.5753 4.39009C13.4453 4.67348 13.2265 5.14458 13.0895 5.43645C12.9525 5.72831 12.6785 6.31628 12.4812 6.74318L12.4412 6.82978C12.244 7.25607 11.9903 7.79015 11.878 8.01601C11.7657 8.24188 11.6497 8.55917 11.6199 8.72025C11.5907 8.88132 11.689 8.80563 11.8393 8.55191C11.9896 8.29758 12.2548 7.87311 12.4285 7.60849C12.6023 7.34387 12.9068 6.85642 13.1053 6.5258C13.3038 6.19518 13.6641 5.61145 13.9058 5.22814C14.1474 4.84484 14.5191 4.24718 14.7322 3.899C14.9453 3.55082 15.2675 3.04217 15.4483 2.76908C15.6291 2.49538 15.8898 2.09088 16.0274 1.86986C16.165 1.64885 16.3718 1.35395 16.4866 1.21407C16.6014 1.0748 16.7961 0.897381 16.9186 0.819873C17.041 0.74297 17.3048 0.628525 17.5034 0.566155C17.7025 0.503785 18.0171 0.47472 18.2023 0.500758C18.3875 0.526795 18.6856 0.635186 18.8645 0.741154C19.0434 0.847122 19.2869 1.06511 19.4062 1.22497C19.5254 1.38483 19.6516 1.6876 19.6859 1.89651C19.7201 2.10602 19.6732 2.4863 19.5812 2.74123C19.4893 2.99676 19.2926 3.42608 19.1442 3.69615C18.9958 3.96561 18.6666 4.51241 18.4129 4.91024L14.9105 10.4006C14.6561 10.799 14.6986 10.8269 15.0043 10.4636L19.2609 5.40011C19.5666 5.03619 19.9187 4.66924 20.043 4.58386C20.1673 4.49848 20.3855 4.40038 20.5269 4.36587C20.669 4.33135 20.9107 4.29744 21.0642 4.29018C21.2176 4.28291 21.4523 4.32106 21.5862 4.37434C21.72 4.42763 21.9115 4.51786 22.0124 4.57478C22.1132 4.6317 22.2674 4.74796 22.3555 4.83273C22.4431 4.91751 22.5712 5.07494 22.6403 5.18333C22.7088 5.29112 22.7894 5.46733 22.8198 5.57451C22.8503 5.68169 22.8718 5.86032 22.8693 5.97113C22.8668 6.08194 22.8503 6.27753 22.8338 6.4059C22.8173 6.53428 22.7653 6.7341 22.719 6.84976C22.6727 6.96541 22.3866 7.35901 22.0828 7.72415L17.9569 12.6804C17.653 13.0456 17.3962 13.3883 17.3866 13.4422C17.3771 13.4961 17.6511 13.2702 17.9968 12.9408L20.5123 10.5405C20.858 10.2111 21.25 9.8865 21.3832 9.81989C21.517 9.75328 21.7314 9.68365 21.8602 9.66488C21.9889 9.6461 22.2077 9.63944 22.3473 9.64974C22.4862 9.66003 22.7221 9.70666 22.8718 9.75268C23.0209 9.7987 23.1991 9.8865 23.267 9.94705C23.3348 10.0076 23.4541 10.1275 23.5308 10.2135C23.6076 10.2995 23.7217 10.4696 23.7839 10.5913C23.8461 10.7131 23.9215 10.9008 23.9514 11.0079C23.9812 11.1151 24.0046 11.3174 24.0027 11.4566C24.0008 11.5965 23.9615 11.8054 23.9158 11.9211C23.8695 12.0367 23.7693 12.2075 23.6926 12.3008C23.6158 12.394 23.4979 12.5514 23.4306 12.6514C23.3634 12.7513 23.0304 13.1073 22.6917 13.4434L16.741 19.1996" stroke="#6F6BA6" stroke-miterlimit="10"/>
<path d="M26.0419 17.475C26.2087 17.4563 26.4586 17.466 26.5982 17.4962C26.7377 17.5265 26.9749 17.6531 27.1265 17.7784C27.2781 17.9038 27.4677 18.0969 27.5489 18.2077C27.6301 18.3185 27.7253 18.5456 27.7601 18.7121C27.795 18.8787 27.8236 19.1324 27.8236 19.2765C27.8236 19.4206 27.757 19.684 27.6758 19.8614C27.5946 20.0389 27.4138 20.275 27.2743 20.3858C27.1347 20.4966 26.869 20.6511 26.6831 20.7286C26.4973 20.8061 26.0793 20.9514 25.7539 21.0513C25.4286 21.1512 24.9059 21.2965 24.592 21.3741C24.278 21.4516 23.7554 21.5787 23.43 21.6562C23.1046 21.7337 22.4513 21.8918 21.9781 22.0074L21.8823 22.0311C21.4092 22.1467 20.813 22.2866 20.5574 22.3417C20.3017 22.3968 19.9694 22.5058 19.8178 22.5839C19.6662 22.662 19.7905 22.6887 20.0924 22.6445C20.3943 22.6003 20.9081 22.5367 21.2329 22.5034C21.5576 22.4701 22.1475 22.3974 22.5426 22.3423C22.9378 22.2866 23.6412 22.1964 24.1055 22.1407C24.5698 22.085 25.2928 21.9947 25.7108 21.939C26.1288 21.8833 26.7472 21.8112 27.084 21.7779C27.4208 21.7446 27.9149 21.6901 28.1826 21.6568C28.4502 21.6235 28.8206 21.5963 29.0065 21.5963C29.1923 21.5963 29.4587 21.6326 29.5983 21.6768C29.7378 21.721 29.994 21.8482 30.1685 21.959C30.3429 22.0698 30.5611 22.2878 30.6543 22.4428C30.7476 22.5978 30.8421 22.8885 30.8655 23.0883C30.889 23.2881 30.8605 23.6054 30.8021 23.7944C30.7438 23.9827 30.5731 24.2643 30.4222 24.4193C30.2712 24.5743 29.9287 24.7741 29.6617 24.8631C29.3947 24.9521 28.919 25.0696 28.6056 25.1253C28.2923 25.181 27.6384 25.2719 27.1538 25.327L20.4679 26.093C19.9827 26.1487 19.9859 26.1977 20.4743 26.2026L27.2743 26.2668C27.7627 26.2716 28.2828 26.3085 28.4299 26.3491C28.5771 26.3897 28.7927 26.4926 28.9088 26.5774C29.0249 26.6622 29.2025 26.8226 29.3033 26.9334C29.4042 27.0443 29.5183 27.2441 29.557 27.3773C29.5957 27.5105 29.6401 27.7097 29.6553 27.8212C29.6706 27.9326 29.6706 28.1197 29.6553 28.2378C29.6401 28.3558 29.5894 28.5496 29.5424 28.6677C29.4955 28.7858 29.401 28.9553 29.3312 29.0443C29.2615 29.1333 29.1283 29.2599 29.0357 29.3265C28.9431 29.3931 28.7718 29.5021 28.6557 29.5687C28.5397 29.6353 28.343 29.7201 28.2194 29.757C28.0957 29.794 27.5946 29.8224 27.1062 29.82L20.4749 29.7879C19.9865 29.7855 19.5457 29.8049 19.4956 29.8309C19.4455 29.857 19.8007 29.9236 20.2859 29.9787L23.8175 30.3819C24.3027 30.437 24.8114 30.5309 24.949 30.5902C25.0867 30.6496 25.2763 30.7677 25.3715 30.8524C25.4666 30.9372 25.6074 31.0977 25.6848 31.2085C25.7622 31.3193 25.87 31.5252 25.9239 31.6657C25.9778 31.8062 26.0159 31.9939 26.0083 32.0823C26.0007 32.1707 25.9753 32.3342 25.9518 32.445C25.9284 32.5558 25.8586 32.7465 25.7971 32.8683C25.7355 32.99 25.6271 33.1625 25.558 33.2516C25.4882 33.3406 25.336 33.4823 25.2199 33.5676C25.1038 33.6524 24.9072 33.7523 24.7835 33.7893C24.6598 33.8262 24.4569 33.8565 24.3332 33.8565C24.2095 33.8565 24.0065 33.8656 23.8828 33.8765C23.7592 33.8874 23.26 33.8583 22.7741 33.8117L7.95249 32.382C7.46664 32.3354 6.94844 32.2542 6.80129 32.2028C6.65413 32.1513 6.42897 32.0423 6.30148 31.9606C6.17399 31.8794 5.99005 31.7462 5.89301 31.6651C5.79597 31.5839 5.66023 31.3962 5.59046 31.2485C5.52069 31.1007 5.42238 30.7434 5.37227 30.4552C5.32217 30.167 5.24922 29.7552 5.21053 29.5409C5.17184 29.3265 5.08622 28.8306 5.02025 28.4382C4.95429 28.0464 4.83378 27.3494 4.75259 26.8898L4.69614 26.5719C4.61495 26.1123 4.48493 25.3591 4.40818 24.8989L4.2382 23.884C4.16082 23.4238 4.09802 22.9018 4.09802 22.7244C4.09802 22.547 4.17096 22.2139 4.25976 21.985C4.34856 21.7555 4.65618 21.3081 4.94287 20.9902C5.22956 20.6722 5.7262 20.1242 6.0465 19.7724L6.37442 19.4121C6.69473 19.0603 7.21039 18.5002 7.51991 18.1672C7.82944 17.8341 8.39584 17.3249 8.77831 17.0348L9.44366 16.5298C9.82612 16.2398 10.475 15.7959 10.886 15.544L11.3636 15.2509C11.7746 14.999 12.4336 14.5867 12.8288 14.3354C13.2239 14.0841 13.7624 13.7752 14.0256 13.6499C14.2889 13.5239 14.6314 13.3944 14.7861 13.3611C14.9409 13.3278 15.239 13.3429 15.4483 13.395C15.6576 13.447 15.9709 13.6251 16.1454 13.7916C16.3198 13.9581 16.5094 14.2391 16.5678 14.4165C16.6261 14.5939 16.6832 14.8664 16.6946 15.0214C16.7061 15.1764 16.6585 15.4853 16.5887 15.7069C16.519 15.9285 16.3667 16.1919 16.2507 16.2918C16.1346 16.3917 15.7052 16.6824 15.2961 16.9373L14.1772 17.6361C13.7688 17.891 13.1713 18.3119 12.8497 18.5704C12.5281 18.829 12.2433 19.1439 12.2161 19.2698C12.1888 19.3958 12.1983 19.5647 12.237 19.6465C12.2757 19.7282 12.3962 19.8306 12.5047 19.8748C12.6131 19.919 13.0939 19.882 13.5734 19.7918L24.871 17.6718C25.3505 17.5822 25.8789 17.4932 26.0451 17.4744H26.0419V17.475Z" fill="#6F6AA6" stroke="#6F6BA6" stroke-miterlimit="10"/>
</g>
<defs>
<clipPath id="clip0_621_3777">
<rect width="31" height="34" fill="white"/>
</clipPath>
</defs>
</svg>
