<svg width="35" height="35" viewBox="0 0 35 35" fill="none" xmlns="http://www.w3.org/2000/svg">
<g clip-path="url(#clip0_621_3849)">
<path d="M7.29167 16.1875L10.2083 13.2708L18.2292 21.2917L23.3333 16.1875L27.7083 20.5625V7.29167H7.29167V16.1875ZM5.83333 4.375H29.1667C29.5534 4.375 29.9244 4.52865 30.1979 4.80214C30.4714 5.07563 30.625 5.44656 30.625 5.83333V29.1667C30.625 29.5534 30.4714 29.9244 30.1979 30.1979C29.9244 30.4714 29.5534 30.625 29.1667 30.625H5.83333C5.44656 30.625 5.07563 30.4714 4.80214 30.1979C4.52865 29.9244 4.375 29.5534 4.375 29.1667V5.83333C4.375 5.44656 4.52865 5.07563 4.80214 4.80214C5.07563 4.52865 5.44656 4.375 5.83333 4.375ZM22.6042 14.5833C22.024 14.5833 21.4676 14.3529 21.0574 13.9426C20.6471 13.5324 20.4167 12.976 20.4167 12.3958C20.4167 11.8157 20.6471 11.2593 21.0574 10.849C21.4676 10.4388 22.024 10.2083 22.6042 10.2083C23.1843 10.2083 23.7407 10.4388 24.151 10.849C24.5612 11.2593 24.7917 11.8157 24.7917 12.3958C24.7917 12.976 24.5612 13.5324 24.151 13.9426C23.7407 14.3529 23.1843 14.5833 22.6042 14.5833Z" fill="#6F6AA6"/>
</g>
<defs>
<clipPath id="clip0_621_3849">
<rect width="35" height="35" fill="white"/>
</clipPath>
</defs>
</svg>
