<svg width="24" height="25" viewBox="0 0 24 25" fill="none" xmlns="http://www.w3.org/2000/svg">
<path d="M23.2968 10.3189L13.6968 0.703794C13.2467 0.253155 12.6364 0 12 0C11.3636 0 10.7533 0.253155 10.3032 0.703794L0.703212 10.3189C0.479444 10.5417 0.30206 10.8067 0.181348 11.0986C0.0606365 11.3906 -0.00100041 11.7036 1.22789e-05 12.0196V23.5577C1.22789e-05 23.9402 0.151726 24.3071 0.421778 24.5776C0.69183 24.848 1.0581 25 1.44001 25H9.12C9.50191 25 9.86818 24.848 10.1382 24.5776C10.4083 24.3071 10.56 23.9402 10.56 23.5577V17.3079H13.44V23.5577C13.44 23.9402 13.5917 24.3071 13.8618 24.5776C14.1318 24.848 14.4981 25 14.88 25H22.56C22.9419 25 23.3082 24.848 23.5782 24.5776C23.8483 24.3071 24 23.9402 24 23.5577V12.0196C24.001 11.7036 23.9394 11.3906 23.8187 11.0986C23.6979 10.8067 23.5206 10.5417 23.2968 10.3189ZM21.12 22.1155H16.32V15.8656C16.32 15.4831 16.1683 15.1163 15.8982 14.8458C15.6282 14.5753 15.2619 14.4234 14.88 14.4234H9.12C8.73809 14.4234 8.37182 14.5753 8.10177 14.8458C7.83172 15.1163 7.68 15.4831 7.68 15.8656V22.1155H2.88001V12.2179L12 3.08354L21.12 12.2179V22.1155Z" fill="white"/>
</svg>
