<svg width="23" height="38" viewBox="0 0 23 38" fill="none" xmlns="http://www.w3.org/2000/svg">
<path d="M22.9688 1.64062V6.01562C22.9688 6.45075 22.7959 6.86805 22.4882 7.17572C22.1805 7.4834 21.7632 7.65625 21.3281 7.65625C20.893 7.65625 20.4757 7.4834 20.168 7.17572C19.8604 6.86805 19.6875 6.45075 19.6875 6.01562V3.28125H13.125V19.6875H15.8594C16.2945 19.6875 16.7118 19.8604 17.0195 20.168C17.3271 20.4757 17.5 20.893 17.5 21.3281C17.5 21.7632 17.3271 22.1805 17.0195 22.4882C16.7118 22.7959 16.2945 22.9688 15.8594 22.9688H7.10938C6.67425 22.9688 6.25695 22.7959 5.94928 22.4882C5.6416 22.1805 5.46875 21.7632 5.46875 21.3281C5.46875 20.893 5.6416 20.4757 5.94928 20.168C6.25695 19.8604 6.67425 19.6875 7.10938 19.6875H9.84375V3.28125H3.28125V6.01562C3.28125 6.45075 3.1084 6.86805 2.80072 7.17572C2.49305 7.4834 2.07575 7.65625 1.64062 7.65625C1.2055 7.65625 0.788205 7.4834 0.480528 7.17572C0.172851 6.86805 9.16949e-09 6.45075 0 6.01562V1.64062C0 1.2055 0.172851 0.788205 0.480528 0.480528C0.788205 0.172851 1.2055 0 1.64062 0H21.3281C21.7632 0 22.1805 0.172851 22.4882 0.480528C22.7959 0.788205 22.9688 1.2055 22.9688 1.64062Z" fill="#6F6AA6"/>
<path d="M6.53449 31.8469C6.4561 31.9256 6.36296 31.988 6.2604 32.0306C6.15784 32.0732 6.04788 32.0951 5.93683 32.0951C5.82578 32.0951 5.71582 32.0732 5.61327 32.0306C5.51071 31.988 5.41756 31.9256 5.33917 31.8469L3.08917 29.5969C3.01051 29.5185 2.9481 29.4254 2.90552 29.3228C2.86293 29.2203 2.84101 29.1103 2.84101 28.9993C2.84101 28.8882 2.86293 28.7783 2.90552 28.6757C2.9481 28.5731 3.01051 28.48 3.08917 28.4016L5.33917 26.1516C5.49768 25.9931 5.71267 25.9041 5.93683 25.9041C6.16099 25.9041 6.37598 25.9931 6.53449 26.1516C6.693 26.3101 6.78204 26.5251 6.78204 26.7493C6.78204 26.9734 6.693 27.1884 6.53449 27.3469L5.7266 28.1562H16.2735L15.4656 27.3469C15.3871 27.2684 15.3248 27.1753 15.2824 27.0727C15.2399 26.9702 15.218 26.8603 15.218 26.7493C15.218 26.5251 15.3071 26.3101 15.4656 26.1516C15.5441 26.0731 15.6372 26.0109 15.7398 25.9684C15.8423 25.9259 15.9522 25.9041 16.0632 25.9041C16.2874 25.9041 16.5024 25.9931 16.6609 26.1516L18.9109 28.4016C18.9896 28.48 19.052 28.5731 19.0946 28.6757C19.1371 28.7783 19.1591 28.8882 19.1591 28.9993C19.1591 29.1103 19.1371 29.2203 19.0946 29.3228C19.052 29.4254 18.9896 29.5185 18.9109 29.5969L16.6609 31.8469C16.5024 32.0054 16.2874 32.0945 16.0632 32.0945C15.8391 32.0945 15.6241 32.0054 15.4656 31.8469C15.3071 31.6884 15.218 31.4734 15.218 31.2493C15.218 31.0251 15.3071 30.8101 15.4656 30.6516L16.2735 29.8437H5.7266L6.5366 30.653C6.61491 30.7315 6.67698 30.8247 6.71926 30.9272C6.76154 31.0297 6.7832 31.1395 6.783 31.2504C6.78281 31.3613 6.76076 31.471 6.71811 31.5734C6.67547 31.6758 6.61307 31.7687 6.53449 31.8469Z" fill="#6F6AA6"/>
</svg>
