<svg width="35" height="35" viewBox="0 0 35 35" fill="none" xmlns="http://www.w3.org/2000/svg">
<path d="M30.625 7.29167V27.7083H4.37504V7.29167H30.625ZM30.625 4.375H4.37504C2.77087 4.375 1.45837 5.6875 1.45837 7.29167V27.7083C1.45837 29.3125 2.77087 30.625 4.37504 30.625H30.625C32.2292 30.625 33.5417 29.3125 33.5417 27.7083V7.29167C33.5417 5.6875 32.2292 4.375 30.625 4.375ZM17.5 11.6667C22.2396 11.6667 26.25 14.3354 26.25 17.5C26.25 20.6646 22.2396 23.3333 17.5 23.3333C12.7605 23.3333 8.75004 20.6646 8.75004 17.5C8.75004 14.3354 12.7605 11.6667 17.5 11.6667ZM17.5 8.75C11.0542 8.75 5.83337 12.6729 5.83337 17.5C5.83337 22.3271 11.0542 26.25 17.5 26.25C23.9459 26.25 29.1667 22.3271 29.1667 17.5C29.1667 12.6729 23.9459 8.75 17.5 8.75Z" fill="#6F6AA6"/>
</svg>
