<svg width="12" height="11" viewBox="0 0 12 11" fill="none" xmlns="http://www.w3.org/2000/svg">
<path d="M11.25 5.54272C11.25 5.65876 11.2039 5.77004 11.1219 5.85208C11.0398 5.93413 10.9285 5.98022 10.8125 5.98022H6.4375V10.3552C6.4375 10.4713 6.39141 10.5825 6.30936 10.6646C6.22731 10.7466 6.11603 10.7927 6 10.7927C5.88397 10.7927 5.77269 10.7466 5.69064 10.6646C5.60859 10.5825 5.5625 10.4713 5.5625 10.3552V5.98022H1.1875C1.07147 5.98022 0.960188 5.93413 0.878141 5.85208C0.796094 5.77004 0.75 5.65876 0.75 5.54272C0.75 5.42669 0.796094 5.31541 0.878141 5.23337C0.960188 5.15132 1.07147 5.10522 1.1875 5.10522H5.5625V0.730225C5.5625 0.614192 5.60859 0.502913 5.69064 0.420865C5.77269 0.338818 5.88397 0.292725 6 0.292725C6.11603 0.292725 6.22731 0.338818 6.30936 0.420865C6.39141 0.502913 6.4375 0.614192 6.4375 0.730225V5.10522H10.8125C10.9285 5.10522 11.0398 5.15132 11.1219 5.23337C11.2039 5.31541 11.25 5.42669 11.25 5.54272Z" fill="white"/>
</svg>
