<svg width="53" height="55" viewBox="0 0 53 55" fill="none" xmlns="http://www.w3.org/2000/svg">
<path d="M33.2788 13.5456C33.1941 13.5373 33.1083 13.5314 33.0237 13.5254C32.4876 10.7173 30.3023 8.49695 27.5303 7.94485V5.83399C28.1028 5.38184 28.4484 4.64887 28.3626 3.83856C28.2544 2.81764 27.4398 1.98948 26.4312 1.87763C25.1087 1.73009 23.9907 2.7748 23.9907 4.08368C23.9907 4.79523 24.3222 5.42824 24.8359 5.83399V7.94485C22.0651 8.49695 19.8786 10.7161 19.3425 13.5254C19.2567 13.5314 19.1721 13.5385 19.0874 13.5456C14.1818 14.0061 10.4683 18.2504 10.4683 23.2372V29.5008C10.4683 29.5008 10.5118 37.2291 20.4793 37.2291H32.336C32.6158 37.2291 32.8932 37.2172 33.1683 37.1946C38.1221 36.7864 41.9003 32.5219 41.9003 27.4911V23.2372C41.9003 18.2504 38.1867 14.0061 33.2811 13.5456H33.2788ZM26.1819 10.5388C28.0675 10.5388 29.671 11.7822 30.2364 13.5004H22.1274C22.6929 11.781 24.2963 10.5388 26.1819 10.5388Z" stroke="white" stroke-miterlimit="10"/>
<path d="M34.8493 26.9556C34.8493 28.3597 33.7208 29.5008 32.3348 29.5008H20.0303C18.6431 29.5008 17.5157 28.3585 17.5157 26.9556V23.7751C17.5157 22.371 18.6443 21.2299 20.0303 21.2299H32.3348C33.722 21.2299 34.8493 22.3722 34.8493 23.7751V26.9556Z" stroke="white" stroke-miterlimit="10"/>
<path d="M21.5938 27.0472C22.5118 27.0472 23.256 26.294 23.256 25.3647C23.256 24.4355 22.5118 23.6823 21.5938 23.6823C20.6757 23.6823 19.9315 24.4355 19.9315 25.3647C19.9315 26.294 20.6757 27.0472 21.5938 27.0472Z" stroke="white" stroke-miterlimit="10"/>
<path d="M30.7714 27.0472C31.6894 27.0472 32.4336 26.294 32.4336 25.3647C32.4336 24.4355 31.6894 23.6823 30.7714 23.6823C29.8533 23.6823 29.1091 24.4355 29.1091 25.3647C29.1091 26.294 29.8533 27.0472 30.7714 27.0472Z" stroke="white" stroke-miterlimit="10"/>
<path d="M41.6171 52.6083H10.4472C7.24149 52.6083 4.64233 49.1469 4.64233 44.8765C4.64233 40.606 7.24149 37.1446 10.4472 37.1446H41.6171C44.8229 37.1446 47.422 40.606 47.422 44.8765C47.422 49.1469 44.8229 52.6083 41.6171 52.6083Z" stroke="white" stroke-miterlimit="10"/>
<path d="M34.5378 37.2291C34.5378 38.1393 30.7267 38.8782 26.0268 38.8782C21.3269 38.8782 17.5157 38.1393 17.5157 37.2291" stroke="white" stroke-miterlimit="10"/>
<path d="M20.4429 40.9539C21.1872 40.2845 22.4276 38.9618 23.4714 38.9583V52.7083" stroke="white" stroke-miterlimit="10"/>
<path d="M21.2 38.5764C21.2 38.5764 20.3533 39.746 20.0336 40.8657" stroke="white" stroke-miterlimit="10"/>
<path d="M19.2436 41.5903C18.5207 42.1865 17.3098 45.7026 17.4215 47.6944H19.1625C19.1625 47.6944 19.0379 43.7524 19.8373 42.1377" stroke="white" stroke-miterlimit="10"/>
<path d="M19.2708 42.1651C19.1062 42.0139 19.0944 41.7557 19.2449 41.5903L19.801 40.993C19.9502 40.8264 20.2053 40.8145 20.3687 40.9668C20.5333 41.118 20.5451 41.3762 20.3946 41.5416L19.8386 42.1389C19.6893 42.3055 19.4342 42.3174 19.2708 42.1651Z" stroke="white" stroke-miterlimit="10"/>
<path d="M24.9857 38.8663V52.6083" stroke="white" stroke-miterlimit="10"/>
</svg>
