<svg width="21" height="22" viewBox="0 0 21 22" fill="none" xmlns="http://www.w3.org/2000/svg">
<path d="M11.9756 16.1804L7.45361 13.7143C6.86323 14.3454 6.09667 14.7844 5.25353 14.9741C4.4104 15.1639 3.52968 15.0957 2.72583 14.7783C1.92198 14.4609 1.23218 13.9091 0.746064 13.1946C0.259949 12.48 0 11.6358 0 10.7716C0 9.90734 0.259949 9.0631 0.746064 8.34855C1.23218 7.634 1.92198 7.08219 2.72583 6.76483C3.52968 6.44747 4.4104 6.37924 5.25353 6.56899C6.09667 6.75875 6.86323 7.19773 7.45361 7.82887L11.9767 5.36272C11.7199 4.34618 11.8427 3.27089 12.322 2.3384C12.8013 1.40591 13.6042 0.680238 14.5803 0.297414C15.5564 -0.0854105 16.6386 -0.0991057 17.6241 0.258895C18.6095 0.616896 19.4306 1.32201 19.9333 2.24208C20.4361 3.16214 20.586 4.23398 20.355 5.25669C20.1241 6.2794 19.528 7.18276 18.6786 7.79744C17.8292 8.41212 16.7848 8.69592 15.7412 8.59564C14.6975 8.49536 13.7263 8.01788 13.0095 7.25272L8.48638 9.71887C8.65998 10.4096 8.65998 11.1325 8.48638 11.8232L13.0084 14.2893C13.7252 13.5242 14.6964 13.0467 15.7401 12.9464C16.7838 12.8461 17.8282 13.1299 18.6776 13.7446C19.5269 14.3593 20.123 15.2627 20.354 16.2854C20.5849 17.3081 20.435 18.3799 19.9322 19.3C19.4295 20.22 18.6084 20.9252 17.623 21.2832C16.6375 21.6412 15.5553 21.6275 14.5792 21.2446C13.6032 20.8618 12.8002 20.1361 12.3209 19.2037C11.8416 18.2712 11.7188 17.1959 11.9756 16.1793V16.1804ZM4.30791 12.9249C4.87915 12.9249 5.42699 12.6979 5.83091 12.294C6.23484 11.8901 6.46176 11.3423 6.46176 10.771C6.46176 10.1998 6.23484 9.65195 5.83091 9.24803C5.42699 8.8441 4.87915 8.61718 4.30791 8.61718C3.73668 8.61718 3.18884 8.8441 2.78491 9.24803C2.38099 9.65195 2.15407 10.1998 2.15407 10.771C2.15407 11.3423 2.38099 11.8901 2.78491 12.294C3.18884 12.6979 3.73668 12.9249 4.30791 12.9249ZM16.1541 6.46334C16.7253 6.46334 17.2731 6.23641 17.6771 5.83249C18.081 5.42856 18.3079 4.88072 18.3079 4.30949C18.3079 3.73825 18.081 3.19041 17.6771 2.78649C17.2731 2.38257 16.7253 2.15564 16.1541 2.15564C15.5828 2.15564 15.035 2.38257 14.6311 2.78649C14.2271 3.19041 14.0002 3.73825 14.0002 4.30949C14.0002 4.88072 14.2271 5.42856 14.6311 5.83249C15.035 6.23641 15.5828 6.46334 16.1541 6.46334ZM16.1541 19.3864C16.7253 19.3864 17.2731 19.1595 17.6771 18.7556C18.081 18.3516 18.3079 17.8038 18.3079 17.2326C18.3079 16.6613 18.081 16.1135 17.6771 15.7096C17.2731 15.3056 16.7253 15.0787 16.1541 15.0787C15.5828 15.0787 15.035 15.3056 14.6311 15.7096C14.2271 16.1135 14.0002 16.6613 14.0002 17.2326C14.0002 17.8038 14.2271 18.3516 14.6311 18.7556C15.035 19.1595 15.5828 19.3864 16.1541 19.3864Z" fill="#6F6AA6"/>
</svg>
