<svg width="51" height="34" viewBox="0 0 51 34" fill="none" xmlns="http://www.w3.org/2000/svg">
<path d="M21.6094 8.25012C21.6094 7.83987 21.7723 7.44641 22.0624 7.15632C22.3525 6.86622 22.746 6.70325 23.1562 6.70325H45.8438C46.254 6.70325 46.6475 6.86622 46.9376 7.15632C47.2276 7.44641 47.3906 7.83987 47.3906 8.25012C47.3906 8.66038 47.2276 9.05383 46.9376 9.34393C46.6475 9.63402 46.254 9.797 45.8438 9.797H23.1562C22.746 9.797 22.3525 9.63402 22.0624 9.34393C21.7723 9.05383 21.6094 8.66038 21.6094 8.25012ZM26.25 11.8595C25.8397 11.8595 25.4463 12.0225 25.1562 12.3126C24.8661 12.6027 24.7031 12.9961 24.7031 13.4064C24.7031 13.8166 24.8661 14.2101 25.1562 14.5002C25.4463 14.7903 25.8397 14.9532 26.25 14.9532H42.75C43.1603 14.9532 43.5537 14.7903 43.8438 14.5002C44.1339 14.2101 44.2969 13.8166 44.2969 13.4064C44.2969 12.9961 44.1339 12.6027 43.8438 12.3126C43.5537 12.0225 43.1603 11.8595 42.75 11.8595H26.25ZM45.8438 17.0157H23.1562C22.746 17.0157 22.3525 17.1787 22.0624 17.4688C21.7723 17.7589 21.6094 18.1524 21.6094 18.5626C21.6094 18.9729 21.7723 19.3663 22.0624 19.6564C22.3525 19.9465 22.746 20.1095 23.1562 20.1095H45.8438C46.254 20.1095 46.6475 19.9465 46.9376 19.6564C47.2276 19.3663 47.3906 18.9729 47.3906 18.5626C47.3906 18.1524 47.2276 17.7589 46.9376 17.4688C46.6475 17.1787 46.254 17.0157 45.8438 17.0157ZM42.75 22.172H26.25C25.8397 22.172 25.4463 22.335 25.1562 22.6251C24.8661 22.9152 24.7031 23.3086 24.7031 23.7189C24.7031 24.1291 24.8661 24.5226 25.1562 24.8127C25.4463 25.1028 25.8397 25.2657 26.25 25.2657H42.75C43.1603 25.2657 43.5537 25.1028 43.8438 24.8127C44.1339 24.5226 44.2969 24.1291 44.2969 23.7189C44.2969 23.3086 44.1339 22.9152 43.8438 22.6251C43.5537 22.335 43.1603 22.172 42.75 22.172Z" fill="#6F6AA6"/>
<g clip-path="url(#clip0_621_3799)">
<path d="M17.766 5.56848L20.948 8.75046C21.159 8.96144 21.2775 9.24759 21.2775 9.54596C21.2775 9.84433 21.159 10.1305 20.948 10.3415C20.737 10.5524 20.4509 10.671 20.1525 10.671C19.8542 10.671 19.568 10.5524 19.357 10.3415L18.0975 9.08192L18.0982 14.3209C18.0982 14.6198 17.9794 14.9064 17.7681 15.1178C17.5567 15.3291 17.2701 15.4479 16.9712 15.4479C16.6723 15.4479 16.3857 15.3291 16.1743 15.1178C15.963 14.9065 15.8443 14.6198 15.8443 14.3209L15.8436 9.08192L14.5841 10.3415C14.3731 10.5524 14.0869 10.671 13.7886 10.671C13.4902 10.671 13.204 10.5524 12.9931 10.3415C12.7821 10.1305 12.6636 9.84433 12.6636 9.54596C12.6636 9.24759 12.7821 8.96144 12.9931 8.75046L16.175 5.56848C16.386 5.35751 16.6722 5.23898 16.9705 5.23898C17.2689 5.23898 17.5551 5.35751 17.766 5.56848ZM15.8449 19.6222L15.8436 24.8592L14.5841 23.5997C14.3731 23.3887 14.0869 23.2702 13.7886 23.2702C13.4902 23.2702 13.204 23.3887 12.9931 23.5997C12.7821 23.8107 12.6636 24.0968 12.6636 24.3952C12.6636 24.6936 12.7821 24.9797 12.9931 25.1907L16.175 28.3727C16.386 28.5837 16.6722 28.7022 16.9705 28.7022C17.2689 28.7022 17.5551 28.5837 17.766 28.3727L20.948 25.1907C21.159 24.9797 21.2775 24.6936 21.2775 24.3952C21.2775 24.0968 21.159 23.8107 20.948 23.5997C20.737 23.3887 20.4509 23.2702 20.1525 23.2702C19.8542 23.2702 19.568 23.3887 19.357 23.5997L18.0975 24.8592L18.0982 19.6202C18.0982 19.3214 17.9794 19.0347 17.7681 18.8234C17.5567 18.612 17.2701 18.4933 16.9712 18.4933C16.6723 18.4933 16.3857 18.612 16.1743 18.8234C15.963 19.0347 15.8443 19.3214 15.8443 19.6202L15.8449 19.6222Z" fill="#6F6AA6"/>
</g>
<defs>
<clipPath id="clip0_621_3799">
<rect width="24" height="24" fill="white" transform="translate(0 16.9706) rotate(-45)"/>
</clipPath>
</defs>
</svg>
