<svg width="985" height="1115" viewBox="0 0 985 1115" fill="none" xmlns="http://www.w3.org/2000/svg">
<g opacity="0.15">
<g style="mix-blend-mode:multiply">
<path d="M523.003 849.58C519.84 822.091 514.886 794.341 508.185 766.516C505.201 754.146 501.753 741.471 494.241 729.765C475.06 699.846 436.088 685.268 402.036 678.183C370.676 671.656 339.479 668.517 309.313 668.865C279.415 669.205 250.005 672.912 218.945 666.518C187.875 660.118 153.505 640.419 140.355 611.966C132.53 595.032 133.425 577.437 139.466 563.25C145.513 549.055 156.305 537.86 167.938 527.815C181.262 516.31 196.402 505.259 200.67 487.711C205.095 469.548 195.864 446.081 178.073 430.251C152.762 407.735 118.353 403.971 87.2073 397.956C47.6421 390.31 6.14639 375.501 -27.061 347.996C-60.2641 320.505 -82.9308 278.35 -74.4356 245.731" stroke="#361E5E" stroke-width="2" stroke-miterlimit="10"/>
<path d="M515.41 852.215C512.336 825.2 507.363 797.903 500.594 770.574C497.58 758.426 494.097 745.981 486.726 734.475C471.918 711.367 445.372 697.302 418.543 688.703C411.239 686.354 403.903 684.413 396.782 682.799C366.157 675.872 335.607 672.267 305.981 672.044C276.627 671.828 247.711 675.046 217.179 668.423C200.066 664.71 182.014 657.37 166.695 646.911C153.35 637.795 142.05 626.182 135.548 612.571C134.384 610.138 133.4 607.69 132.586 605.243C127.558 590.113 129.033 574.951 134.269 562.253C135.953 558.176 137.993 554.322 140.299 550.646C146.323 541.064 154.13 532.669 162.222 524.815C175.048 512.339 188.833 500.063 192.363 482.003C195.864 464.062 187.115 441.425 169.803 425.9C145.168 403.815 111.857 399.6 81.8054 393.177C79.4436 392.671 77.058 392.136 74.6892 391.578C38.7328 383.097 1.98562 368.268 -27.5375 342.924C-59.0233 315.895 -80.1697 275.03 -71.366 243.532" stroke="#361E5E" stroke-width="2" stroke-miterlimit="10"/>
<path d="M507.823 854.841C504.827 828.293 499.849 801.47 492.999 774.616C489.961 762.683 486.427 750.468 479.197 739.163C464.672 716.455 438.877 702.376 412.762 693.547C405.646 691.132 398.495 689.109 391.54 687.399C361.644 680.079 331.736 675.993 302.66 675.207C273.85 674.435 245.419 677.135 215.434 670.319C197.791 666.309 179.218 658.843 163.303 648.213C149.483 638.971 137.623 627.12 130.758 613.175C129.53 610.683 128.479 608.161 127.609 605.624C122.241 590.027 123.8 574.427 129.074 561.233C130.768 557 132.818 552.99 135.112 549.166C141.106 539.176 148.743 530.232 156.517 521.8C168.83 508.352 181.293 494.889 184.073 476.272C186.71 458.597 178.398 436.747 161.565 421.526C137.606 399.871 105.392 395.205 76.4359 388.375C74.1582 387.84 71.8622 387.267 69.5775 386.679C34.9653 377.747 -0.0847905 362.735 -28.0068 337.822C-57.7711 311.269 -77.4013 271.681 -68.2891 241.302" stroke="#6F6AA6" stroke-width="2" stroke-miterlimit="10"/>
<path d="M500.23 857.474C497.306 831.402 492.32 805.038 485.407 778.673C482.33 766.955 478.77 754.978 471.667 743.872C457.409 721.565 432.38 707.472 406.963 698.414C400.021 695.932 393.061 693.821 386.271 692.014C357.11 684.295 327.844 679.727 299.312 678.385C271.046 677.058 243.087 679.216 213.653 672.224C195.474 667.902 176.384 660.324 159.884 649.53C145.589 640.161 133.165 628.058 125.935 613.779C124.635 611.22 123.527 608.631 122.604 606.02C116.913 589.956 118.55 573.926 123.861 560.235C125.559 555.854 127.619 551.689 129.899 547.701C135.867 537.296 143.332 527.825 150.794 518.807C162.61 504.387 173.749 489.781 175.76 470.571C177.581 453.199 169.652 432.106 153.288 417.182C130.006 395.957 98.8896 390.839 71.0279 383.603C68.8343 383.038 66.6323 382.443 64.4275 381.811C31.1553 372.413 -2.19788 357.217 -28.4992 332.75C-56.5419 306.672 -74.6462 268.368 -65.2255 239.109" stroke="#896DB6" stroke-width="2" stroke-miterlimit="10"/>
<path d="M492.637 860.109C489.801 834.51 484.796 808.599 477.811 782.716C474.71 771.213 471.104 759.48 464.147 748.568C450.167 726.669 425.895 712.554 401.175 703.267C394.423 700.718 387.638 698.518 381.023 696.622C352.591 688.511 323.967 683.461 295.985 681.556C268.274 679.681 240.787 681.276 211.902 674.128C193.189 669.494 173.587 661.797 156.496 650.847C141.721 641.36 128.742 629.011 121.154 614.391C119.791 611.773 118.615 609.11 117.641 606.425C111.615 589.885 113.337 573.418 118.694 559.238C120.413 554.709 122.467 550.387 124.741 546.244C130.669 535.423 137.978 525.426 145.119 515.815C156.436 500.423 166.269 484.711 167.503 464.878C168.553 447.832 160.959 427.458 145.077 412.853C122.471 392.059 92.4586 386.482 65.686 378.847C63.582 378.244 61.4641 377.62 59.3533 376.966C27.4252 367.116 -4.24075 351.728 -28.9312 327.7C-55.2524 302.099 -71.8405 265.071 -62.1112 236.932" stroke="#896DB6" stroke-width="2" stroke-miterlimit="10"/>
<path d="M485.044 862.742C482.286 837.611 477.267 812.167 470.21 786.766C467.079 775.486 463.438 763.983 456.607 753.27C442.893 731.772 419.388 717.643 395.366 708.126C388.803 705.511 382.203 703.229 375.749 701.245C348.051 692.733 320.074 687.217 292.642 684.749C265.48 682.311 238.466 683.343 210.14 676.047C190.897 671.094 170.773 663.293 153.097 652.179C137.846 642.565 124.307 629.979 116.346 615.017C114.91 612.332 113.677 609.602 112.641 606.836C106.275 589.829 108.091 572.932 113.476 558.247C115.198 553.57 117.268 549.086 119.522 544.787C125.419 533.558 132.587 523.034 139.381 512.822C150.24 496.488 158.757 479.663 159.174 459.177C159.503 442.493 152.197 422.816 136.801 408.509C114.871 388.146 85.9558 382.117 60.2779 374.074C58.2581 373.443 56.2299 372.781 54.2031 372.097C23.6192 361.797 -6.35389 346.21 -29.4236 322.628C-54.0331 297.495 -69.0799 261.751 -59.0576 234.732" stroke="#784460" stroke-width="2" stroke-miterlimit="10"/>
<path d="M477.467 865.375C474.787 840.712 469.759 815.727 462.634 790.823C459.473 779.765 455.797 768.492 449.098 757.972C435.661 736.882 412.912 722.731 389.594 712.978C383.21 710.289 376.796 707.926 370.507 705.845C343.538 696.941 316.203 690.943 289.326 687.905C262.708 684.911 236.174 685.35 208.391 677.929C188.609 672.649 167.963 664.743 149.71 653.474C133.979 643.741 119.886 630.91 111.556 615.599C110.053 612.839 108.757 610.05 107.669 607.21C100.979 589.735 102.864 572.401 108.295 557.227C110.028 552.394 112.102 547.761 114.35 543.307C120.223 531.663 127.219 520.613 133.697 509.799C144.064 492.486 151.332 474.622 150.899 453.445C150.566 437.147 143.496 418.138 128.562 404.135C107.309 384.202 79.4913 377.722 54.9137 369.265C52.978 368.604 51.0395 367.905 49.1066 367.199C19.8628 356.433 -8.41898 340.669 -29.8778 317.526C-52.7601 292.861 -66.2964 258.401 -55.9656 232.502" stroke="#794D65" stroke-width="2" stroke-miterlimit="10"/>
<path d="M469.874 868.01C467.282 843.821 462.229 819.296 455.033 794.873C451.838 784.023 448.131 772.994 441.563 762.668C428.393 741.978 406.401 727.806 383.791 717.83C377.597 715.075 371.361 712.638 365.243 710.453C339.009 701.149 312.316 694.67 285.984 691.076C259.91 687.527 233.846 687.365 206.625 679.833C186.3 674.212 165.145 666.225 146.307 654.791C130.101 644.932 115.443 631.848 106.754 616.218C105.187 613.4 103.824 610.536 102.685 607.622C95.6542 589.68 97.6398 571.908 103.102 556.245C104.845 551.256 106.923 546.475 109.156 541.857C114.989 529.798 121.834 518.214 127.984 506.815C137.853 488.53 143.908 469.642 142.596 447.752C141.646 431.862 134.75 413.497 120.305 399.806C99.7382 380.311 73.0083 373.372 49.5255 364.508C47.6795 363.81 45.8195 363.089 43.9763 362.346C16.0767 351.128 -10.5123 335.166 -30.3504 312.469C-51.5112 288.28 -63.5313 255.097 -52.8821 230.325" stroke="#7B556B" stroke-width="2" stroke-miterlimit="10"/>
<path d="M462.282 870.643C459.767 846.921 454.706 822.857 447.447 798.923C444.223 788.295 440.48 777.497 434.048 767.378C421.146 747.088 399.908 732.939 378.018 722.705C372.007 719.89 365.952 717.357 360 715.076C334.495 705.38 308.444 698.419 282.661 694.262C257.132 690.157 231.539 689.373 204.869 681.745C184.01 675.789 162.343 667.705 142.913 656.116C126.227 646.137 111.015 632.809 101.957 616.83C100.318 613.944 98.903 611.007 97.6969 608.018C90.3415 589.609 92.3961 571.4 97.8955 555.24C99.6424 550.103 101.731 545.166 103.958 540.392C109.766 527.918 116.44 515.807 122.278 503.822C131.649 484.566 136.529 464.683 134.305 442.044C132.782 426.583 126.032 408.841 112.066 395.454C92.1749 376.39 66.5426 369 44.1545 359.729C42.3926 359.001 40.6321 358.251 38.873 357.478C12.3175 345.809 -12.5744 329.663 -30.8115 307.397C-50.2507 283.684 -60.7448 251.785 -49.797 228.125" stroke="#7D5E70" stroke-width="2" stroke-miterlimit="10"/>
<path d="M454.688 873.277C452.262 850.03 447.191 826.424 439.845 802.973C436.597 792.56 432.813 781.999 426.513 772.073C413.888 752.191 393.406 738.021 372.214 727.557C366.393 724.675 360.523 722.061 354.736 719.684C329.965 709.588 304.561 702.161 279.319 697.433C254.339 692.764 229.218 691.358 203.102 683.649C181.696 677.337 159.524 669.186 139.5 657.425C122.339 647.321 106.566 633.754 97.1346 617.434C95.4324 614.489 93.9404 611.47 92.6924 608.414C85.0026 589.53 87.1515 570.891 92.6822 554.242C94.4489 548.956 96.5377 543.857 98.744 538.928C104.522 526.045 111.035 513.393 116.546 500.822C125.419 480.594 129.175 459.731 125.982 436.335C123.937 421.319 117.266 404.185 103.779 391.103C84.5645 372.469 60.0255 364.613 38.7364 354.95C37.0585 354.192 35.3878 353.405 33.7128 352.603C8.4917 340.475 -14.6976 324.137 -31.314 302.317C-49.0414 279.073 -58.0096 248.457 -46.7533 225.918" stroke="#7F6775" stroke-width="2" stroke-miterlimit="10"/>
<path d="M447.101 875.903C444.752 853.123 439.667 829.985 432.249 807.016C428.962 796.818 425.153 786.494 418.978 776.768C406.626 757.28 386.899 743.11 366.417 732.402C360.779 729.461 355.09 726.75 349.468 724.277C325.427 713.788 300.665 705.88 275.972 700.589C251.547 695.372 226.888 693.314 201.322 685.531C179.384 678.863 156.692 670.645 136.082 658.72C118.441 648.497 102.119 634.678 92.3237 618.024C90.5487 615.012 88.9994 611.926 87.6995 608.796C79.6697 589.445 81.9032 570.368 87.4863 553.222C89.2573 547.788 91.3561 542.533 93.5471 537.441C99.2902 524.136 105.631 510.957 110.831 497.8C119.196 476.592 121.888 454.773 117.676 430.605C115.141 416.033 108.533 399.507 95.5195 386.736C76.9812 368.534 53.5398 360.226 33.3551 350.163C31.767 349.368 30.1748 348.559 28.5993 347.727C4.72799 335.141 -16.7797 318.619 -31.7852 297.238C-47.7855 274.462 -55.2334 245.138 -43.6685 223.718" stroke="#816F7A" stroke-width="2" stroke-miterlimit="10"/>
<path d="M439.518 878.545C437.248 856.232 432.148 833.561 424.674 811.073C421.356 801.098 417.506 791.011 411.479 781.478C399.403 762.398 380.434 748.206 360.649 737.269C355.191 734.254 349.687 731.462 344.235 728.907C320.928 718.019 296.808 709.629 272.675 703.782C248.794 698.01 224.62 695.292 199.601 687.457C177.127 680.418 153.915 672.133 132.724 660.06C114.608 649.71 97.7157 635.646 87.5622 618.65C85.7144 615.572 84.1077 612.419 82.7519 609.2C74.3975 589.381 76.7099 569.875 82.3201 552.225C84.1011 546.635 86.2042 541.231 88.3898 535.983C94.1025 522.27 100.283 508.55 105.155 494.807C113.023 472.628 114.687 449.844 109.419 424.911C106.434 410.791 99.8438 394.874 87.3148 382.4C69.4528 364.627 47.109 355.868 28.0191 345.398C26.515 344.574 25.0125 343.728 23.5211 342.867C0.994004 329.829 -18.8209 313.108 -32.2057 292.173C-46.4844 269.873 -52.4162 241.826 -40.5428 221.526" stroke="#837880" stroke-width="2" stroke-miterlimit="10"/>
<path d="M431.925 881.178C429.742 859.34 424.619 837.129 417.072 815.123C413.731 805.363 409.84 795.513 403.944 786.173C392.136 767.494 373.922 753.28 354.846 742.121C349.576 739.04 344.258 736.166 338.961 733.507C316.383 722.227 292.906 713.355 269.323 706.946C245.986 700.618 222.28 697.24 197.825 689.354C174.81 681.929 151.087 673.606 129.31 661.37C110.714 650.9 93.2672 636.591 82.7496 619.262C80.8389 616.124 79.165 612.897 77.7574 609.604C69.0686 589.311 71.4655 569.367 77.1168 551.234C78.9022 545.497 81.0209 539.93 83.1856 534.526C88.8679 520.405 94.8473 506.136 99.4326 491.815C106.748 468.634 107.511 444.922 101.106 419.21C97.7055 405.557 91.0937 390.218 79.038 378.056C61.8523 360.714 40.6061 351.503 22.6109 340.627C21.191 339.773 19.7781 338.889 18.3807 338.006C-2.80227 324.517 -20.9299 307.604 -32.7038 287.108C-45.261 265.284 -49.6668 238.521 -37.4948 219.333" stroke="#858085" stroke-width="2" stroke-miterlimit="10"/>
<path d="M424.333 883.813C422.228 862.441 417.095 840.69 409.481 819.181C406.1 809.636 402.184 800.023 396.413 790.883C384.882 772.612 367.426 758.377 349.053 746.981C343.973 743.833 338.824 740.878 333.708 738.123C311.859 726.45 289.024 717.097 265.99 710.124C243.198 703.241 219.972 699.189 196.059 691.259C172.514 683.455 148.27 675.087 125.907 662.687C106.836 652.091 88.8288 637.544 77.9431 619.867C75.9596 616.662 74.2283 613.368 72.7689 610.001C63.7402 589.24 66.2314 568.866 71.9197 550.237C73.7248 544.351 75.8381 538.628 77.9974 533.069C83.6548 518.533 89.4681 503.73 93.7359 488.83C100.544 464.67 100.422 440.008 92.8186 413.517C89.0294 400.315 82.3792 385.577 70.7967 373.727C54.2874 356.816 34.1388 347.153 17.2383 335.87C15.9081 334.979 14.5738 334.073 13.2661 333.153C-6.5769 319.198 -23.0076 302.101 -33.1707 282.044C-44.0161 260.688 -46.8959 235.209 -34.4056 217.148" stroke="#87898A" stroke-width="2" stroke-miterlimit="10"/>
<path d="M416.745 886.439C414.718 865.535 409.571 844.25 401.885 823.223C398.48 813.893 394.523 804.517 388.894 795.578C377.63 777.707 360.94 763.458 343.275 751.84C338.374 748.618 333.42 745.589 328.47 742.738C307.355 730.665 285.167 720.846 262.673 713.302C240.43 705.855 217.675 701.122 194.318 693.17C170.962 685.218 145.483 676.568 122.529 664.011C102.992 653.297 84.4211 638.497 73.156 620.485C71.1151 617.214 69.311 613.854 67.7901 610.404C58.4367 589.176 61.0027 568.357 66.7223 549.239C68.5318 543.205 70.655 537.326 72.7991 531.604C78.4163 516.653 84.0633 501.316 88.0193 485.829C94.3294 460.698 93.3862 435.064 84.5112 407.808C80.3642 395.059 73.6392 380.928 62.5258 369.375C46.6928 352.894 27.6474 342.773 11.836 331.09C10.5899 330.17 9.35505 329.234 8.13141 328.284C-10.3674 313.878 -25.101 296.597 -33.6532 276.979C-42.7771 256.099 -44.1408 231.896 -31.342 214.956" stroke="#89928F" stroke-width="2" stroke-miterlimit="10"/>
<path d="M409.153 889.073C407.208 868.651 402.048 847.811 394.289 827.266C390.855 818.158 386.862 809.013 381.365 800.266C370.378 782.804 354.441 768.518 337.478 756.685C332.766 753.397 327.987 750.279 323.202 747.332C302.817 734.866 281.276 724.558 259.327 716.459C237.628 708.456 215.358 703.041 192.539 695.053C167.925 686.44 142.651 678.027 119.112 665.307C99.0947 654.473 79.959 639.421 68.3454 621.075C66.2317 617.737 64.3702 614.31 62.7976 610.787C53.1042 589.091 55.7644 567.842 61.5266 548.22C63.3461 542.03 65.4737 536.003 67.6123 530.125C73.2047 514.758 78.6856 498.887 82.3143 482.815C88.1266 456.712 86.4291 430.099 76.221 402.078C71.7332 389.758 64.9122 376.243 54.2875 365.002C39.1308 348.952 21.1829 338.379 6.46634 326.289C5.30435 325.339 4.15922 324.367 3.01968 323.387C-14.1349 308.53 -27.1758 291.05 -34.1171 271.87C-41.5138 251.459 -41.3571 228.547 -28.2596 212.719" stroke="#8B9A95" stroke-width="2" stroke-miterlimit="10"/>
<path d="M401.57 891.714C399.703 871.759 394.538 851.394 386.708 831.331C383.234 822.438 379.216 813.53 373.845 804.984C363.125 787.922 347.954 773.621 331.689 761.56C327.167 758.205 322.573 755.005 317.953 751.962C298.303 739.097 277.399 728.314 256.009 719.66C234.864 711.109 213.066 704.989 190.797 696.986C165.655 687.951 139.857 679.537 115.723 666.646C95.2307 655.686 75.5348 640.396 63.5474 621.709C61.3609 618.304 59.4421 614.81 57.8177 611.213C47.7997 589.05 50.5291 567.364 56.338 547.252C58.1674 540.906 60.3049 534.724 62.4227 528.69C67.9847 512.915 73.2994 496.51 76.6065 479.845C81.9153 452.777 79.5534 425.148 67.9224 396.399C63.1188 384.517 56.1809 371.625 46.0351 360.687C31.5645 345.075 14.7044 334.044 1.08256 321.547C0.0102847 320.56 -1.05074 319.558 -2.09638 318.556C-17.9166 303.24 -29.2605 285.576 -34.5811 266.842C-40.2563 246.907 -38.5835 225.272 -25.1774 210.564" stroke="#8CA39A" stroke-width="2" stroke-miterlimit="10"/>
<path d="M393.982 894.34C392.193 874.852 387.02 854.947 379.112 835.373C375.614 826.695 371.555 818.024 366.315 809.671C355.863 793.009 341.463 778.688 325.897 766.397C321.554 762.968 317.145 759.687 312.685 756.554C293.764 743.297 273.502 732.033 252.667 722.808C232.067 713.701 210.755 706.878 189.037 698.861C163.373 689.394 137.041 680.973 112.326 667.933C91.3533 656.854 71.1028 641.319 58.7473 622.283C56.4978 618.819 54.5118 615.251 52.8258 611.572C42.4734 588.934 45.2971 566.818 51.1275 546.209C52.9711 539.723 55.1088 533.377 57.2211 527.187C62.7486 510.99 67.8915 494.059 70.8965 476.814C75.6977 448.768 72.7497 420.1 59.6314 390.668C54.5192 379.193 47.4629 366.946 37.7806 356.313C23.9863 341.132 8.22383 329.649 -4.30333 316.745C-5.29151 315.728 -6.26843 314.697 -7.22436 313.658C-21.6948 297.883 -31.3515 280.028 -35.0612 261.733C-39.0247 242.266 -35.8161 221.922 -22.1016 208.334" stroke="#8EAC9F" stroke-width="2" stroke-miterlimit="10"/>
<path d="M386.39 896.974C384.689 877.961 379.491 858.515 371.526 839.424C367.999 830.968 363.899 822.534 358.8 814.381C348.63 798.12 334.999 783.762 320.114 771.264C315.965 767.761 311.726 764.399 307.442 761.177C289.255 747.52 269.639 735.79 249.345 725.994C229.295 716.324 208.47 708.797 187.281 700.772C161.091 690.861 134.234 682.461 108.933 669.258C87.4852 658.053 66.6801 642.273 53.9606 622.903C51.6383 619.372 49.5852 615.729 47.8572 611.983C37.1648 588.878 40.073 566.324 45.9502 545.227C47.8038 538.584 49.9458 532.091 52.0429 525.738C57.5399 509.133 62.5222 491.66 65.2 473.829C69.5034 444.811 66.0493 415.06 51.3441 384.975C45.9288 373.9 38.7332 362.305 29.5451 351.977C16.4272 337.226 1.7622 325.291 -9.67022 311.98C-10.5743 310.934 -11.4615 309.866 -12.3277 308.79C-25.454 292.564 -33.4235 274.517 -35.5125 256.668C-37.7544 237.677 -33.0297 218.61 -19.0066 206.142" stroke="#90B4A4" stroke-width="2" stroke-miterlimit="10"/>
<path d="M378.797 899.608C377.174 881.062 371.967 862.076 363.925 843.474C360.363 835.226 356.233 827.037 351.265 819.077C341.363 803.216 328.498 788.844 314.31 776.116C310.352 772.547 306.292 769.111 302.169 765.778C284.711 751.729 265.743 739.509 245.993 729.158C226.487 718.932 206.154 710.694 185.505 702.67C158.8 692.298 131.406 683.935 105.519 670.568C83.5914 659.244 62.2317 643.219 49.1385 623.507C46.7532 619.917 44.6385 616.193 42.8531 612.38C31.8362 588.808 34.8289 565.817 40.7374 544.229C42.5953 537.439 44.753 530.782 46.839 524.281C52.3056 507.268 57.1217 489.261 59.4778 470.837C63.2834 440.847 59.3933 409.962 43.0312 379.274C37.3297 368.577 29.9932 357.657 21.2785 347.64C8.83121 333.328 -4.73473 320.919 -15.0682 307.216C-15.8826 306.133 -16.676 305.043 -17.4581 303.937C-29.25 287.252 -35.5168 269.014 -35.9949 251.604C-36.5153 233.089 -30.2647 215.306 -15.9429 203.95" stroke="#92BDAA" stroke-width="2" stroke-miterlimit="10"/>
<path d="M371.204 902.242C369.669 884.171 364.438 865.644 356.324 847.524C352.733 839.498 348.567 831.539 343.731 823.772C334.105 808.319 321.987 793.918 308.517 780.976C304.748 777.34 300.863 773.815 296.915 770.394C280.192 755.944 261.861 743.25 242.661 732.336C223.699 721.555 203.855 712.59 183.739 704.574C156.52 693.72 128.588 685.416 102.116 671.885C79.7133 660.434 57.7836 644.164 44.3418 624.119C41.8838 620.462 39.7117 616.671 37.8703 612.769C26.5134 588.729 29.5906 565.301 35.5361 543.217C37.404 536.27 39.566 529.465 41.6367 522.801C47.0688 505.366 51.7229 486.84 53.7573 467.822C57.0553 436.853 52.8049 404.773 34.72 373.551C28.7238 363.202 21.2493 352.994 13.0036 343.274C1.23268 329.392 -11.2357 316.532 -20.4745 302.422C-21.2048 301.309 -21.914 300.189 -22.6064 299.047C-33.0541 281.91 -37.6239 263.489 -36.4911 246.517C-35.2844 228.47 -27.5232 211.971 -12.8831 201.742" stroke="#94C5AF" stroke-width="2" stroke-miterlimit="10"/>
<path d="M363.627 904.875C360.235 863.965 336.433 820.6 302.74 785.835C269.047 751.071 226.118 724.53 181.999 706.485C154.272 695.141 125.801 686.896 98.7379 673.21C71.6744 659.523 45.1674 638.912 32.9014 613.18C17.5414 580.966 27.8284 549.891 36.4638 521.343C50.6792 474.411 58.5267 419.007 26.4477 367.857C10.4712 342.382 -14.1485 320.378 -27.6904 294.193C-46.4623 257.891 -38.7729 217.234 -9.77305 199.55" stroke="#96CEB4" stroke-width="2" stroke-miterlimit="10"/>
</g>
</g>
</svg>
