<svg width="30" height="30" viewBox="0 0 30 30" fill="none" xmlns="http://www.w3.org/2000/svg">
<path d="M7.03125 11.25V18.75C7.03125 19.123 6.88309 19.4806 6.61937 19.7444C6.35565 20.0081 5.99796 20.1562 5.625 20.1562C5.25204 20.1562 4.89435 20.0081 4.63063 19.7444C4.36691 19.4806 4.21875 19.123 4.21875 18.75V11.25C4.21875 10.877 4.36691 10.5194 4.63063 10.2556C4.89435 9.99191 5.25204 9.84375 5.625 9.84375C5.99796 9.84375 6.35565 9.99191 6.61937 10.2556C6.88309 10.5194 7.03125 10.877 7.03125 11.25ZM10.3125 2.34375C9.93954 2.34375 9.58185 2.49191 9.31813 2.75563C9.05441 3.01935 8.90625 3.37704 8.90625 3.75V26.25C8.90625 26.623 9.05441 26.9806 9.31813 27.2444C9.58185 27.5081 9.93954 27.6562 10.3125 27.6562C10.6855 27.6562 11.0431 27.5081 11.3069 27.2444C11.5706 26.9806 11.7188 26.623 11.7188 26.25V3.75C11.7188 3.37704 11.5706 3.01935 11.3069 2.75563C11.0431 2.49191 10.6855 2.34375 10.3125 2.34375ZM15 6.09375C14.627 6.09375 14.2694 6.24191 14.0056 6.50563C13.7419 6.76935 13.5938 7.12704 13.5938 7.5V22.5C13.5938 22.873 13.7419 23.2306 14.0056 23.4944C14.2694 23.7581 14.627 23.9062 15 23.9062C15.373 23.9062 15.7306 23.7581 15.9944 23.4944C16.2581 23.2306 16.4062 22.873 16.4062 22.5V7.5C16.4062 7.12704 16.2581 6.76935 15.9944 6.50563C15.7306 6.24191 15.373 6.09375 15 6.09375ZM19.6875 9.84375C19.3145 9.84375 18.9569 9.99191 18.6931 10.2556C18.4294 10.5194 18.2812 10.877 18.2812 11.25V18.75C18.2812 19.123 18.4294 19.4806 18.6931 19.7444C18.9569 20.0081 19.3145 20.1562 19.6875 20.1562C20.0605 20.1562 20.4181 20.0081 20.6819 19.7444C20.9456 19.4806 21.0938 19.123 21.0938 18.75V11.25C21.0938 10.877 20.9456 10.5194 20.6819 10.2556C20.4181 9.99191 20.0605 9.84375 19.6875 9.84375ZM24.375 7.96875C24.002 7.96875 23.6444 8.11691 23.3806 8.38063C23.1169 8.64435 22.9688 9.00204 22.9688 9.375V20.625C22.9688 20.998 23.1169 21.3556 23.3806 21.6194C23.6444 21.8831 24.002 22.0312 24.375 22.0312C24.748 22.0312 25.1056 21.8831 25.3694 21.6194C25.6331 21.3556 25.7812 20.998 25.7812 20.625V9.375C25.7812 9.00204 25.6331 8.64435 25.3694 8.38063C25.1056 8.11691 24.748 7.96875 24.375 7.96875Z" fill="#6F6AA6"/>
</svg>
